<svg width="591" height="473" viewBox="0 0 591 473" fill="none" xmlns="http://www.w3.org/2000/svg">
<g clip-path="url(#clip0_67_3186)">
<path d="M295.204 5.9187C455.3 5.9187 585.084 135.757 585.084 295.921H295.204V5.9187Z" fill="#FBF1E2"/>
<path d="M88.4052 221.941C117.614 206.099 154.587 216.918 178.596 207.732C208.273 194.351 255.957 191.879 276.949 203.69C276.949 203.69 276.919 212.437 276.671 221.941H295.202V5.9187C160.662 5.9187 47.5379 97.6132 14.8445 221.941H88.4052Z" fill="#EDF3F4"/>
<path d="M6.34591 271.464C5.67287 279.528 5.3324 287.68 5.32452 295.921H31.647C43.0707 292.626 57.3729 289.399 75.292 286.494C141.472 275.765 87.7461 268.137 6.34591 271.464Z" fill="#8EBCBB"/>
<path d="M39.6366 242.065C38.2814 232.562 76.355 226.237 88.4052 221.942H14.8472C11.3074 235.405 8.74507 249.106 7.18024 262.938C35.6769 261.309 61.8658 260.347 82.3339 259.812C57.8171 253.694 40.409 247.482 39.6366 242.065Z" fill="#8EBCBB"/>
<path d="M274.807 245.451L250.835 290.002C250.835 290.002 223.015 286.148 187.57 280.328C188.577 286.541 181.493 292.312 166.47 294.678C163.872 295.086 161.387 295.501 158.987 295.921H295.204V221.941H276.673C276.402 232.476 275.864 243.943 274.807 245.451Z" fill="#8EBCBB"/>
<path d="M39.6366 242.065C40.4091 247.483 57.8171 253.696 82.3339 259.812C102.687 259.28 117.384 259.172 123.051 259.251C164.688 259.838 185.997 270.625 187.57 280.328C223.015 286.148 250.835 290.002 250.835 290.002L274.807 245.451C276.566 244.417 277.026 205.872 276.949 203.69C255.824 191.795 207.918 194.468 178.596 207.732C154.591 216.918 117.608 206.1 88.4052 221.941C76.3551 226.235 38.2815 232.561 39.6366 242.065Z" fill="#D6CEC2"/>
<path d="M187.57 280.328C185.997 270.623 164.688 259.837 123.051 259.251C117.384 259.172 102.687 259.28 82.3339 259.812C61.8658 260.347 35.6796 261.309 7.18024 262.938C6.8604 265.767 6.58229 268.609 6.34589 271.466C87.7447 268.138 141.472 275.767 75.2919 286.495C57.3742 289.4 43.0706 292.627 31.6469 295.922H158.987C161.387 295.505 163.872 295.087 166.47 294.679C181.493 292.312 188.577 286.541 187.57 280.328Z" fill="#F3DFC1"/>
<path d="M537.756 295.921V403.106C552.684 389.532 564.606 372.983 572.757 354.523C580.908 336.064 585.107 316.101 585.084 295.921H537.756Z" fill="#FCE2BA"/>
<path d="M490.429 295.921V431.953C507.913 425.472 523.982 415.678 537.756 403.106V295.921H490.429Z" fill="#FBF1E2"/>
<path d="M443.102 440.885C459.266 440.577 475.264 437.557 490.429 431.953V295.921H443.102V440.885Z" fill="#FCE2BA"/>
<path d="M395.775 295.921V433.995C411.059 438.901 427.053 441.231 443.102 440.887V295.921H395.775Z" fill="#FBF1E2"/>
<path d="M348.447 295.921V408.205C362.469 419.691 378.523 428.439 395.775 433.992V295.918L348.447 295.921Z" fill="#FCE2BA"/>
<path d="M301.12 295.921V366.505C311.972 372.451 321.644 380.334 329.659 389.764C335.353 396.465 341.642 402.637 348.447 408.205V295.921H301.12Z" fill="#FBF1E2"/>
<path d="M253.793 295.921V353.946C270.353 354.232 286.595 358.542 301.12 366.505V295.921H253.793Z" fill="#FBF1E2"/>
<path d="M206.465 295.921V353.922H252C252.598 353.922 253.195 353.935 253.793 353.946V295.921H206.465Z" fill="#FCE2BA"/>
<path d="M206.465 295.921H159.138V353.921H206.465V295.921Z" fill="#FBF1E2"/>
<path d="M159.138 295.921H111.811V353.921H159.138V295.921Z" fill="#FCE2BA"/>
<path d="M111.811 295.921H64.4836V353.921H111.811V295.921Z" fill="#FCE2BA"/>
<path d="M17.1564 295.921V331.03C22.6864 338.304 29.8554 344.169 38.0796 348.146C46.3038 352.123 55.3507 354.101 64.4837 353.919V295.921H17.1564Z" fill="#FBF1E2"/>
<path d="M5.32452 295.921C5.30599 308.607 9.46412 320.945 17.1563 331.031V295.921H5.32452Z" fill="#FCE2BA"/>
<path d="M591 0H525.925V73.3887H591V0Z" fill="#E9E5DF"/>
<path d="M575.027 11.4125V55.0412H554.914V47.9392H547.678C544.449 39.1219 540.744 29.5555 537.516 20.7459C537.516 20.7459 550.083 11.4125 575.027 11.4125Z" fill="#B4C6D8"/>
<path d="M575.027 47.9392H554.321V55.0412H575.027V47.9392Z" fill="#74899F"/>
<path d="M575.013 39.6534V42.6125H545.472L544.364 39.6534H575.013Z" fill="#3B444F"/>
<path d="M575.013 32.0353V34.9185H542.63L541.514 32.0353H575.013Z" fill="#3B444F"/>
<path d="M575.013 24.2656V27.2247H539.78L538.665 24.2656H575.013Z" fill="#3B444F"/>
<path d="M575.027 51.4902H554.321V55.0412H575.027V51.4902Z" fill="#3B444F"/>
<path d="M575.027 55.0413H540.123V62.1432H575.027V55.0413Z" fill="white"/>
<path d="M591 290.003H292.246V295.921H591V290.003Z" fill="white"/>
<path d="M591 195.308H292.246V201.227H591V195.308Z" fill="white"/>
<path d="M496.345 97.6537H292.246V103.572H496.345V97.6537Z" fill="white"/>
<path d="M496.345 0H292.246V5.91876H496.345V0Z" fill="white"/>
<path d="M298.162 295.921V0L292.246 0V295.921H298.162Z" fill="white"/>
<path d="M395.775 295.921V0L389.859 0V295.921H395.775Z" fill="white"/>
<path d="M496.345 295.921V0L490.429 0V295.921H496.345Z" fill="white"/>
<path d="M591 295.921V195.307H585.084V295.921H591Z" fill="white"/>
<path d="M382.168 97.6537H391.042V29.5918H382.168V97.6537Z" fill="#C66F53"/>
<path d="M363.829 97.6544H378.027V50.3071H363.829V97.6544Z" fill="white"/>
<path d="M375.069 97.6544H382.168V42.0213H375.069V97.6544Z" fill="#F5CEA9"/>
<path d="M405.831 139.675H395.775V195.308H405.831V139.675Z" fill="#5998C5"/>
<path d="M424.762 147.961H410.564V195.308H424.762V147.961Z" fill="#DBE7E9"/>
<path d="M412.339 139.675H404.649V195.308H412.339V139.675Z" fill="#7CB8DD"/>
<path d="M430.679 147L424.807 147.722L430.575 194.716L436.447 193.995L430.679 147Z" fill="#D3B291"/>
<path d="M434.758 157.417L431.27 157.846L435.794 194.703L439.282 194.275L434.758 157.417Z" fill="#F5987E"/>
<path d="M322.417 97.6537H363.829V91.7349H322.417V97.6537Z" fill="#3B444F"/>
<path d="M322.417 91.7356H363.829V86.4088H322.417V91.7356Z" fill="#7B9370"/>
<path d="M447.243 176.895H479.189V164.466H447.243V176.895Z" fill="#0D2135"/>
<path d="M454.342 176.96H472.09V171.042H454.342V176.96Z" fill="#697171"/>
<path d="M469.691 120.736H457.202L450.957 142.601L457.202 164.466H469.691L475.936 142.601L469.691 120.736Z" fill="#EDB665"/>
<path d="M457.202 120.736L450.957 142.601L457.202 164.466H457.213L469.657 120.736H457.202Z" fill="#F8C77E"/>
<path d="M574.161 264.694C574.161 271.394 571.501 277.818 566.766 282.556C562.031 287.293 555.609 289.954 548.912 289.954H529.285C524.343 289.955 519.51 288.504 515.384 285.783C511.259 283.061 508.022 279.188 506.076 274.644C504.13 270.1 503.56 265.084 504.437 260.218C505.313 255.353 507.598 250.852 511.008 247.273C513.313 244.618 514.817 241.362 515.345 237.885C515.873 234.408 515.403 230.852 513.991 227.631C508.588 215.07 518.061 200.675 531.796 200.771H546.402C560.013 200.548 569.674 215.234 564.206 227.631C562.778 230.881 562.313 234.473 562.864 237.979C563.416 241.486 564.961 244.761 567.318 247.415C571.722 252.089 574.17 258.271 574.161 264.694Z" fill="#DB8A73"/>
<path d="M563.615 227.554C563.602 227.582 563.588 227.616 563.575 227.644C563.588 227.616 563.595 227.582 563.609 227.554H563.615Z" fill="#B57865"/>
<path d="M513.36 227.698C513.346 227.67 513.332 227.637 513.319 227.609H513.326C513.339 227.637 513.346 227.67 513.36 227.698Z" fill="#B57865"/>
<path d="M544.856 224.9H533.024L535.39 138.491H542.489L544.856 224.9Z" fill="#3B444F"/>
<path d="M547.222 229.043C547.222 231.319 546.318 233.501 544.71 235.111C543.101 236.72 540.919 237.625 538.644 237.625C527.265 237.173 527.269 220.911 538.644 220.461C540.919 220.461 543.101 221.366 544.71 222.975C546.318 224.584 547.222 226.767 547.222 229.043Z" fill="#0D2135"/>
<path d="M554.913 259.227H522.967V264.552H554.913V259.227Z" fill="#303A45"/>
<path d="M547.222 98.8376L547.187 129.683C545.683 130.591 544.452 131.889 543.625 133.44C542.798 134.99 542.406 136.736 542.489 138.492H535.39C535.463 136.731 535.063 134.984 534.23 133.431C533.398 131.879 532.164 130.579 530.657 129.666L530.691 98.8383L547.222 98.8376Z" fill="#DB8A73"/>
<path d="M542.861 105.348C542.587 105.329 542.312 105.366 542.053 105.458C541.794 105.55 541.557 105.694 541.356 105.881C541.154 106.068 540.994 106.294 540.884 106.546C540.774 106.798 540.716 107.069 540.715 107.344V125.842C540.735 126.378 540.961 126.886 541.348 127.258C541.734 127.631 542.249 127.839 542.786 127.839C543.322 127.839 543.838 127.631 544.224 127.258C544.61 126.886 544.837 126.378 544.856 125.842V107.344C544.856 106.814 544.646 106.307 544.272 105.932C543.898 105.558 543.39 105.348 542.861 105.348Z" fill="white"/>
<path d="M548.036 124.288H548.775C549.224 124.288 549.588 123.923 549.588 123.474V121.551C549.588 121.101 549.224 120.737 548.775 120.737H548.036C547.586 120.737 547.222 121.101 547.222 121.551V123.474C547.222 123.923 547.586 124.288 548.036 124.288Z" fill="#0D2135"/>
<path d="M540.71 123.123H544.851V121.348H540.71V123.123Z" fill="#3B444F"/>
<path d="M548.036 118.37H548.775C549.224 118.37 549.588 118.005 549.588 117.556V115.633C549.588 115.183 549.224 114.819 548.775 114.819H548.036C547.586 114.819 547.222 115.183 547.222 115.633V117.556C547.222 118.005 547.586 118.37 548.036 118.37Z" fill="#0D2135"/>
<path d="M540.71 117.205H544.851V115.43H540.71V117.205Z" fill="#3B444F"/>
<path d="M548.036 112.45H548.775C549.224 112.45 549.588 112.086 549.588 111.636V109.713C549.588 109.264 549.224 108.899 548.775 108.899H548.036C547.586 108.899 547.222 109.264 547.222 109.713V111.636C547.222 112.086 547.586 112.45 548.036 112.45Z" fill="#0D2135"/>
<path d="M540.71 111.287H544.851V109.511H540.71V111.287Z" fill="#3B444F"/>
<path d="M535.019 105.348C535.293 105.329 535.568 105.366 535.827 105.458C536.086 105.55 536.323 105.694 536.524 105.881C536.725 106.068 536.886 106.294 536.996 106.546C537.107 106.798 537.164 107.069 537.165 107.344V125.842C537.148 126.38 536.923 126.89 536.536 127.264C536.15 127.639 535.633 127.848 535.095 127.848C534.557 127.848 534.04 127.639 533.654 127.264C533.268 126.89 533.042 126.38 533.025 125.842V107.344C533.025 106.815 533.235 106.307 533.609 105.933C533.983 105.558 534.49 105.348 535.019 105.348Z" fill="white"/>
<path d="M529.844 120.736H529.105C528.656 120.736 528.291 121.1 528.291 121.55V123.473C528.291 123.923 528.656 124.287 529.105 124.287H529.844C530.293 124.287 530.657 123.923 530.657 123.473V121.55C530.657 121.1 530.293 120.736 529.844 120.736Z" fill="#0D2135"/>
<path d="M537.165 121.328H533.024V123.103H537.165V121.328Z" fill="#3B444F"/>
<path d="M529.844 114.817H529.105C528.656 114.817 528.291 115.182 528.291 115.631V117.554C528.291 118.004 528.656 118.368 529.105 118.368H529.844C530.293 118.368 530.657 118.004 530.657 117.554V115.631C530.657 115.182 530.293 114.817 529.844 114.817Z" fill="#0D2135"/>
<path d="M537.165 115.409H533.024V117.184H537.165V115.409Z" fill="#3B444F"/>
<path d="M529.844 108.899H529.105C528.656 108.899 528.291 109.264 528.291 109.713V111.636C528.291 112.086 528.656 112.45 529.105 112.45H529.844C530.293 112.45 530.657 112.086 530.657 111.636V109.713C530.657 109.264 530.293 108.899 529.844 108.899Z" fill="#0D2135"/>
<path d="M537.165 109.491H533.024V111.266H537.165V109.491Z" fill="#3B444F"/>
<path d="M536.574 138.491H535.982V259.227H536.574V138.491Z" fill="white"/>
<path d="M538.348 138.491H537.756V259.227H538.348V138.491Z" fill="white"/>
<path d="M540.123 138.491H539.532V259.227H540.123V138.491Z" fill="white"/>
<path d="M541.898 138.491H541.307V259.227H541.898V138.491Z" fill="white"/>
<path d="M348.447 133.756H327.741V195.307H348.447V133.756Z" fill="#A8BAAC"/>
<path d="M342.532 177.849C342.532 178.432 342.417 179.009 342.194 179.547C341.971 180.086 341.644 180.575 341.232 180.987C340.82 181.4 340.331 181.727 339.793 181.95C339.254 182.173 338.677 182.287 338.095 182.287C332.221 182.084 332.223 173.612 338.095 173.409C339.271 173.409 340.4 173.877 341.232 174.71C342.064 175.542 342.532 176.671 342.532 177.849Z" fill="#6E6558"/>
<path d="M338.094 174.889C338.871 174.901 339.612 175.218 340.157 175.772C340.702 176.325 341.008 177.071 341.008 177.848C341.008 178.625 340.702 179.371 340.157 179.925C339.612 180.479 338.871 180.796 338.094 180.808C337.318 180.796 336.577 180.479 336.032 179.925C335.487 179.371 335.181 178.625 335.181 177.848C335.181 177.071 335.487 176.325 336.032 175.772C336.577 175.218 337.318 174.901 338.094 174.889ZM338.094 173.409C337.512 173.409 336.935 173.524 336.396 173.747C335.858 173.971 335.369 174.298 334.957 174.71C334.545 175.122 334.218 175.611 333.995 176.15C333.772 176.689 333.658 177.266 333.658 177.849C333.861 183.724 342.329 183.723 342.532 177.849C342.532 176.671 342.064 175.542 341.232 174.71C340.4 173.877 339.271 173.409 338.094 173.409Z" fill="white"/>
<path d="M369.153 133.756H348.447V195.307H369.153V133.756Z" fill="#7B9370"/>
<path d="M363.237 177.849C363.237 179.026 362.77 180.155 361.938 180.987C361.106 181.82 359.977 182.287 358.8 182.287C352.927 182.084 352.929 173.612 358.8 173.409C359.383 173.409 359.96 173.524 360.498 173.747C361.037 173.971 361.526 174.298 361.938 174.71C362.35 175.122 362.677 175.611 362.9 176.15C363.123 176.689 363.237 177.266 363.237 177.849Z" fill="#6E6558"/>
<path d="M358.8 174.889C359.577 174.901 360.318 175.218 360.863 175.772C361.408 176.325 361.713 177.071 361.713 177.848C361.713 178.625 361.408 179.371 360.863 179.925C360.318 180.479 359.577 180.796 358.8 180.808C358.024 180.796 357.283 180.479 356.738 179.925C356.193 179.371 355.887 178.625 355.887 177.848C355.887 177.071 356.193 176.325 356.738 175.772C357.283 175.218 358.024 174.901 358.8 174.889ZM358.8 173.409C358.218 173.409 357.641 173.524 357.102 173.747C356.564 173.971 356.075 174.298 355.663 174.71C355.251 175.122 354.924 175.611 354.701 176.15C354.478 176.689 354.363 177.266 354.364 177.849C354.566 183.724 363.035 183.723 363.237 177.849C363.237 177.266 363.122 176.689 362.899 176.15C362.676 175.611 362.35 175.122 361.938 174.71C361.526 174.298 361.037 173.971 360.498 173.747C359.96 173.524 359.383 173.409 358.8 173.409Z" fill="white"/>
<path d="M389.859 133.756H369.153V195.307H389.859V133.756Z" fill="#124A53"/>
<path d="M383.942 177.849C383.942 179.026 383.474 180.155 382.642 180.987C381.81 181.82 380.682 182.287 379.505 182.287C373.631 182.084 373.633 173.612 379.505 173.409C380.088 173.409 380.665 173.524 381.203 173.747C381.741 173.971 382.23 174.298 382.642 174.71C383.054 175.122 383.381 175.611 383.604 176.15C383.827 176.689 383.942 177.266 383.942 177.849Z" fill="#6E6558"/>
<path d="M379.506 174.889C380.283 174.901 381.024 175.218 381.569 175.772C382.114 176.325 382.419 177.071 382.419 177.848C382.419 178.625 382.114 179.371 381.569 179.925C381.024 180.479 380.283 180.796 379.506 180.808C378.729 180.796 377.989 180.479 377.444 179.925C376.898 179.371 376.593 178.625 376.593 177.848C376.593 177.071 376.898 176.325 377.444 175.772C377.989 175.218 378.729 174.901 379.506 174.889ZM379.506 173.409C378.329 173.409 377.201 173.877 376.368 174.71C375.536 175.542 375.069 176.671 375.069 177.849C375.272 183.724 383.741 183.723 383.943 177.849C383.943 177.266 383.828 176.689 383.605 176.15C383.382 175.611 383.056 175.122 382.644 174.71C382.232 174.298 381.742 173.971 381.204 173.747C380.666 173.524 380.089 173.409 379.506 173.409Z" fill="white"/>
<path d="M506.402 139.675H496.345V195.308H506.402V139.675Z" fill="#7B9370"/>
<path d="M484.514 246.206H478.597V290.003H484.514V246.206Z" fill="#F8C77E"/>
<path d="M478.596 246.353L472.7 245.873L469.15 289.525L475.047 290.005L478.596 246.353Z" fill="#D6CEC2"/>
<path d="M469.132 258.043H463.216V290.003H469.132V258.043Z" fill="#F5987E"/>
<path d="M490.43 246.206H484.514V290.003H490.43V246.206Z" fill="#5998C5"/>
<path d="M515.867 139.675H505.81V195.308H515.867V139.675Z" fill="#424435"/>
<path d="M380.393 207.737H298.162V290.003H380.393V207.737Z" fill="#A59384"/>
<path fill-rule="evenodd" clip-rule="evenodd" d="M323.058 250.001V253.02C323.058 254.021 322.661 254.981 321.953 255.689C321.246 256.396 320.286 256.794 319.286 256.794C318.286 256.794 317.326 256.396 316.619 255.689C315.911 254.981 315.514 254.021 315.514 253.02V250.001H300.426V287.738H338.147V250.001H323.058Z" fill="#F5CEA9"/>
<path fill-rule="evenodd" clip-rule="evenodd" d="M363.419 250.001V253.02C363.419 254.021 363.022 254.981 362.314 255.689C361.607 256.396 360.648 256.794 359.647 256.794C358.647 256.794 357.687 256.396 356.98 255.689C356.273 254.981 355.875 254.021 355.875 253.02V250.001H340.787V287.738H378.508V250.001H363.419Z" fill="#F5CEA9"/>
<path fill-rule="evenodd" clip-rule="evenodd" d="M343.05 209.998V213.017C343.05 214.018 342.652 214.978 341.945 215.685C341.238 216.393 340.278 216.791 339.278 216.791C338.277 216.791 337.318 216.393 336.611 215.685C335.903 214.978 335.506 214.018 335.506 213.017V209.998H300.425V247.734H378.507V209.998H343.05Z" fill="#F5CEA9"/>
<path d="M449.111 238.627L400.561 238.442L409.984 203.434L439.955 203.548L449.111 238.627Z" fill="#FCE2BA"/>
<path d="M437.33 270.472L412.101 270.375C403.33 250.817 421.293 248.027 422.623 238.524L427.045 238.541C428.309 248.054 446.25 250.982 437.33 270.472Z" fill="#E16745"/>
<path fill-rule="evenodd" clip-rule="evenodd" d="M450.846 270.472H395.775V290.003H450.846V270.472Z" fill="#A59384"/>
<path fill-rule="evenodd" clip-rule="evenodd" d="M406.438 272.838C408.4 272.837 410.282 273.617 411.67 275.004C413.058 276.392 413.838 278.274 413.839 280.237C413.439 290.053 399.446 290.053 399.046 280.237C399.047 278.275 399.826 276.394 401.212 275.007C402.598 273.62 404.478 272.839 406.438 272.838Z" fill="#EDF3F4"/>
<path fill-rule="evenodd" clip-rule="evenodd" d="M403.54 280.237C403.539 280.061 403.469 279.893 403.345 279.77C403.221 279.646 403.054 279.575 402.878 279.574H400.673C400.505 279.585 400.348 279.66 400.233 279.782C400.118 279.905 400.054 280.067 400.054 280.235C400.054 280.403 400.118 280.565 400.233 280.688C400.348 280.811 400.505 280.885 400.673 280.896H402.878C403.054 280.895 403.222 280.825 403.346 280.701C403.47 280.577 403.54 280.409 403.54 280.234V280.237Z" fill="#0D2135"/>
<path fill-rule="evenodd" clip-rule="evenodd" d="M436.795 286.702C435.081 285.747 433.817 284.151 433.279 282.264C432.742 280.377 432.975 278.353 433.927 276.638C439.048 268.254 451.274 275.063 446.854 283.834C445.899 285.548 444.303 286.813 442.417 287.35C440.531 287.888 438.509 287.655 436.795 286.702Z" fill="#EDF3F4"/>
<path fill-rule="evenodd" clip-rule="evenodd" d="M442.922 281.644C442.838 281.797 442.818 281.978 442.866 282.146C442.914 282.315 443.026 282.458 443.178 282.544L445.106 283.617C445.182 283.659 445.266 283.686 445.352 283.696C445.438 283.706 445.526 283.699 445.609 283.675C445.693 283.651 445.771 283.611 445.839 283.557C445.907 283.503 445.964 283.436 446.006 283.36C446.048 283.284 446.075 283.201 446.085 283.115C446.095 283.028 446.088 282.941 446.064 282.857C446.04 282.774 446 282.696 445.946 282.627C445.892 282.559 445.825 282.503 445.749 282.46C445.2 282.153 444.373 281.695 443.823 281.386C443.669 281.302 443.488 281.282 443.32 281.33C443.151 281.378 443.009 281.491 442.922 281.644Z" fill="#0D2135"/>
<path fill-rule="evenodd" clip-rule="evenodd" d="M430.323 277.888C430.946 279.748 430.804 281.78 429.93 283.537C429.056 285.293 427.52 286.63 425.66 287.254C416.229 289.994 411.785 276.72 420.96 273.223C422.82 272.6 424.851 272.742 426.607 273.616C428.363 274.491 429.699 276.027 430.323 277.888Z" fill="#EDF3F4"/>
<path fill-rule="evenodd" clip-rule="evenodd" d="M422.391 277.489C422.557 277.432 422.694 277.312 422.772 277.155C422.85 276.998 422.863 276.817 422.808 276.65C422.608 276.052 422.307 275.157 422.107 274.558C422.08 274.475 422.036 274.399 421.979 274.334C421.922 274.268 421.853 274.214 421.775 274.176C421.697 274.137 421.612 274.114 421.525 274.108C421.439 274.102 421.352 274.113 421.269 274.141C421.187 274.168 421.111 274.212 421.045 274.269C420.98 274.326 420.926 274.396 420.887 274.474C420.849 274.552 420.826 274.636 420.82 274.723C420.814 274.81 420.825 274.897 420.852 274.979L421.553 277.071C421.61 277.237 421.73 277.373 421.887 277.451C422.043 277.529 422.225 277.543 422.391 277.488V277.489Z" fill="#0D2135"/>
<path d="M324.065 78.1229H347.39C347.827 78.1233 348.246 78.2972 348.555 78.6065C348.864 78.9157 349.038 79.335 349.038 79.7722V86.4088H322.418V79.7722C322.418 79.3349 322.591 78.9155 322.9 78.6062C323.209 78.297 323.628 78.1231 324.065 78.1229Z" fill="#9DB3C8"/>
<path d="M354.868 65.745C354.785 65.6624 354.688 65.597 354.58 65.5523C354.472 65.5076 354.357 65.4846 354.24 65.4846C354.124 65.4846 354.008 65.5076 353.9 65.5523C353.793 65.597 353.695 65.6624 353.613 65.745C329.503 87.9412 296.543 54.9363 318.723 30.839C318.876 30.67 318.958 30.4485 318.952 30.2205C318.947 29.9925 318.853 29.7754 318.692 29.6143C318.531 29.4532 318.313 29.3605 318.085 29.3554C317.857 29.3503 317.636 29.4332 317.468 29.5869C301.105 45.8595 312.497 74.1644 335.32 74.7202V78.3804H337.386V74.7063C343.972 74.4159 350.21 71.6653 354.868 66.9978C355.034 66.8315 355.127 66.6061 355.127 66.3712C355.127 66.1363 355.034 65.9111 354.868 65.745Z" fill="#9DB3C8"/>
<path d="M359.687 48.2739C359.687 42.0825 357.228 36.1449 352.852 31.7671C348.476 27.3893 342.541 24.9299 336.352 24.9299C305.398 26.1597 305.407 70.3964 336.352 71.6213C339.417 71.6212 342.451 71.0172 345.282 69.8438C348.114 68.6705 350.686 66.9507 352.853 64.7827C355.02 62.6146 356.739 60.0409 357.912 57.2083C359.084 54.3757 359.688 51.3398 359.687 48.2739Z" fill="#7B9370"/>
<path d="M318.973 36.8975C320.335 35.4792 321.694 33.887 323.579 33.3292C325.464 32.7713 327.981 33.9037 327.976 35.8708C327.873 36.8075 327.498 37.6935 326.898 38.4195C323.818 43.0112 321.131 47.8551 318.866 52.8995C318.226 54.3255 317.713 56.2384 318.896 57.2581C321.227 59.0743 323.975 55.3988 326.434 56.2377C326.922 56.4501 327.353 56.7746 327.693 57.1847C328.032 57.5948 328.271 58.0791 328.389 58.5985C328.691 59.6168 328.727 60.695 328.956 61.7321C329.948 66.2201 335.041 69.3363 339.486 68.174C340.436 67.8357 341.413 67.5779 342.407 67.4033C343.89 67.1946 345.605 68.3479 345.077 69.9289C347.301 69.0327 349.374 67.7986 351.222 66.2701C350.168 64.575 349.832 62.3588 351.083 60.8696C352.431 59.2607 354.364 59.1383 355.553 57.409C357.907 53.9867 357.233 51.571 355.553 50.8983C352.595 49.7158 339.104 55.5177 338.989 49.7158C338.967 48.6147 341.294 47.1081 341.139 46.0167C340.973 44.8418 338.09 43.4528 336.063 43.21C335.241 43.1321 334.471 42.7683 333.889 42.1819C333.306 41.5954 332.948 40.8234 332.875 39.9999C332.613 35.6218 341.127 36.7535 344.486 33.5191C346.985 31.1144 350.48 31.0657 353.478 32.4166C341.562 19.295 319.327 24.3456 314.126 41.1531C315.858 39.8728 317.479 38.4493 318.973 36.8975Z" fill="#E8F3FF"/>
<path d="M479.189 176.961H447.243V195.307H479.189V176.961Z" fill="#F5CEA9"/>
<path d="M406.424 87.0606C406.579 90.9559 407.593 93.7382 409.905 97.676H457.44C460.04 97.6064 460.035 94.0443 457.428 94.1097H453.269C453.269 94.1097 453.524 90.8822 450.399 87.8633L455.098 85.9553C456.685 85.0288 456.34 82.8585 456.34 82.8585C456.34 82.8585 454.588 82.686 454.546 80.3802C454.546 80.3802 455.2 77.451 453.346 76.0891L452.657 75.6022C450.716 74.211 450.658 72.488 450.076 70.0924C446.808 71.5038 447.551 73.6587 443.852 75.2398C440.671 76.601 438.921 82.0155 435.23 82.4975C431.54 82.9796 426.895 80.0129 423.931 80.0129C421.706 80.0129 419.237 79.7096 413.432 82.7646C414.39 81.1272 415.576 79.6343 416.954 78.331C418.949 76.3694 421.443 74.4294 422.147 71.4481C423.713 65.5732 417.994 60.0273 412.225 61.9262C411.199 62.2558 410.254 62.7997 409.454 63.522C408.653 64.2442 408.015 65.1283 407.581 66.1157C407.432 66.493 407.431 66.9129 407.58 67.2906C407.728 67.6683 408.014 67.9754 408.381 68.1499C408.747 68.3243 409.166 68.353 409.552 68.2301C409.939 68.1073 410.264 67.842 410.463 67.4881C410.738 66.95 411.127 66.4776 411.601 66.1033C412.076 65.729 412.626 65.4616 413.213 65.3193C416.122 64.5381 418.946 67.4568 417.948 70.2823C417.222 72.2355 415.193 73.3345 413.647 74.7695C410.132 77.6215 406.523 82.636 406.424 87.0606Z" fill="#B5776D"/>
<path d="M462.624 92.6232C462.624 93.8006 463.092 94.9297 463.924 95.7623C464.756 96.5948 465.885 97.0625 467.062 97.0625C472.935 96.8594 472.934 88.3864 467.062 88.1847C466.479 88.1846 465.902 88.2993 465.364 88.5224C464.825 88.7454 464.336 89.0723 463.924 89.4845C463.512 89.8966 463.185 90.386 462.962 90.9245C462.739 91.4631 462.624 92.0403 462.624 92.6232Z" fill="#F5987E"/>
<path d="M131.318 127.832C131.786 116.877 121.171 108.319 110.598 110.911C109.368 111.204 108.08 111.14 106.885 110.725C105.69 110.311 104.639 109.564 103.854 108.572C101.568 105.634 98.6402 103.257 95.2956 101.624C91.9509 99.9903 88.2773 99.1432 84.5554 99.1471C80.3002 99.3314 75.3956 100.816 72.3627 96.8586C69.3637 93.2783 65.5041 90.5194 61.1466 88.8411C56.7892 87.1627 52.0767 86.62 47.452 87.264C42.8274 87.9079 38.4422 89.7173 34.7084 92.5222C30.9746 95.3271 28.0148 99.0355 26.1069 103.299C25.3286 105.056 24.0523 106.546 22.436 107.584C20.8198 108.623 18.9346 109.164 17.0138 109.142C14.6348 109.126 12.2791 109.613 10.1013 110.571C7.92349 111.529 5.97272 112.937 4.37689 114.702C2.78106 116.468 1.57621 118.55 0.841325 120.814C0.106438 123.078 -0.141886 125.472 0.112633 127.838H131.315L131.318 127.832Z" fill="white"/>
<path d="M140.216 100.61C140.176 99.0395 140.496 97.4808 141.15 96.0529C141.805 94.625 142.777 93.3659 143.993 92.3718C145.209 91.3778 146.636 90.6751 148.165 90.3177C149.694 89.9603 151.285 89.9575 152.815 90.3097C153.563 90.4885 154.347 90.4495 155.074 90.1972C155.801 89.9449 156.441 89.4899 156.917 88.8858C158.307 87.0979 160.087 85.6515 162.121 84.6572C164.155 83.663 166.389 83.1472 168.653 83.1493C171.24 83.2613 174.223 84.1662 176.067 81.7581C177.89 79.5791 180.237 77.8998 182.887 76.8782C185.538 75.8566 188.404 75.5263 191.217 75.9184C194.031 76.3105 196.698 77.412 198.968 79.1194C201.238 80.8268 203.037 83.0839 204.195 85.6784C204.668 86.7473 205.444 87.6538 206.427 88.2857C207.41 88.9176 208.557 89.2472 209.725 89.2336C211.173 89.2242 212.606 89.5211 213.931 90.1048C215.256 90.6885 216.443 91.5458 217.414 92.6206C218.384 93.6953 219.117 94.9631 219.563 96.341C220.01 97.7188 220.16 99.1755 220.004 100.615H140.219L140.216 100.61Z" fill="white"/>
<path d="M143.763 156.837C143.581 154.296 147.694 152.316 151.788 152.913C152.696 153.067 153.629 152.873 154.401 152.371C156.598 150.867 159.216 150.101 161.877 150.185C163.526 150.228 165.423 150.573 166.601 149.654C169.034 148.085 171.885 147.288 174.78 147.369C179.122 147.369 182.858 148.921 184.519 151.148C185.145 151.983 186.512 152.509 188.042 152.502C191.924 152.467 195.041 154.535 194.59 156.838H143.764L143.763 156.837Z" fill="white"/>
<path d="M128.959 403.163H150.311V434.456H125.713L128.959 403.163Z" fill="#F7AB96"/>
<path d="M94.6177 455.819H145.861C148.126 455.819 150.299 454.919 151.9 453.316C153.502 451.714 154.402 449.541 154.402 447.274H86.0775C86.0775 449.54 86.9772 451.714 88.5788 453.316C90.1804 454.918 92.3527 455.819 94.6177 455.819Z" fill="#D7A38F"/>
<path d="M154.404 447.273H86.0774C86.0774 447.273 85.8188 442.169 95.5425 439.857C106.881 437.176 122.614 432.709 127.091 420.482C132.391 420.988 136.438 425.05 137.501 430.184H150.312L154.404 447.273Z" fill="#F5CEA9"/>
<path d="M134.238 435.054C132.742 428.24 122.621 427.378 121.754 427.24C121.177 426.999 114.991 424.081 110.228 425.333C103.201 427.46 104.486 434.523 111.399 434.843C115.803 434.843 119.998 430.74 121.363 429.266C121.759 431.18 123.064 436.368 125.972 438.86C129.69 442.208 135.384 440.891 134.238 435.054ZM109.648 432.357C106.53 431.158 107.261 428.489 110.809 427.389C113.414 426.651 117.153 427.754 119.157 428.485C116.967 430.651 112.878 433.726 109.648 432.357ZM131.435 438.314C130.601 438.801 128.932 438.583 127.362 437.238C125.299 435.471 124.151 431.752 123.648 429.678C126.664 430.301 131.488 432.001 132.14 435.451C132.296 436.277 132.412 437.748 131.434 438.314H131.435Z" fill="#D7A38F"/>
<path d="M91.1447 359.367L111.693 365.174L103.189 395.289L79.5166 388.598L91.1447 359.367Z" fill="#F7AB96"/>
<path d="M43.7868 400.697L93.0999 414.635C95.2797 415.251 97.6149 414.976 99.5918 413.87C101.569 412.763 103.025 410.917 103.641 408.736L37.8935 390.151C37.2773 392.332 37.5521 394.667 38.6572 396.645C39.7624 398.623 41.6076 400.08 43.7868 400.697Z" fill="#D7A38F"/>
<path d="M103.644 408.736L37.8936 390.151C37.8936 390.151 39.0318 385.169 49.0183 385.59C60.6582 386.093 77.0129 386.077 84.6444 375.525C89.6061 377.454 92.3963 382.464 92.025 387.692L104.354 391.177L103.644 408.736Z" fill="#F5CEA9"/>
<path d="M81.2597 380.633C81.7547 378.701 73.6928 375.243 71.4018 374.907C66.2198 373.698 59.974 379.974 66.1941 383.376C67.0278 383.821 67.9225 384.142 68.8494 384.328C65.7484 387.93 66.6203 394.956 72.6589 392.925C77.9188 391.045 81.2583 384.336 81.2597 380.633ZM65.8659 379.251C66.4506 377.844 68.8424 376.523 70.9353 376.992C73.3225 377.58 75.6075 378.525 77.713 379.795C75.4805 380.427 73.329 381.316 71.3017 382.445C69.7125 382.48 68.1457 382.065 66.7823 381.248C65.4028 380.364 65.7512 379.527 65.8659 379.251ZM71.5082 391.029C67.8704 391.989 69.083 386.299 71.221 385.05C71.4693 384.878 71.7272 384.713 71.9859 384.552C74.3179 384.423 76.6053 383.859 78.7302 382.889C77.8326 385.544 75.4449 389.994 71.5082 391.029Z" fill="#D7A38F"/>
<path fill-rule="evenodd" clip-rule="evenodd" d="M271.909 292.524C263.467 330.772 246.003 336.561 228.374 337.152L170.665 336.814C168.136 336.799 165.701 337.774 163.88 339.53C162.06 341.286 160.998 343.685 160.92 346.214L154.405 412.409H118.023L121.638 316.173C120.434 298.107 123.326 267.187 123.326 267.187L271.909 292.524Z" fill="#424435"/>
<path fill-rule="evenodd" clip-rule="evenodd" d="M113.533 273.821L89.5539 361.781L119.946 373.606L125.451 306.144C125.581 304.549 126.12 303.014 127.016 301.688C127.912 300.362 129.135 299.29 130.566 298.574C131.997 297.859 133.588 297.525 135.186 297.604C136.784 297.683 138.334 298.173 139.687 299.027L204.37 339.822L242.322 340.359C263.473 341.041 283.35 330.856 289.88 310.718L292.838 279.054L251.722 284.201L143.482 256.642C137.233 254.957 130.572 255.819 124.958 259.039C119.344 262.259 115.236 267.575 113.533 273.821Z" fill="#666850"/>
<path d="M273.623 179.446L227.478 220.284L227.911 251.575L286.046 230.937L273.623 179.446Z" fill="#102325"/>
<path d="M204.764 260.728C204.578 257.529 204.994 254.324 205.991 251.278L223.924 195.791C225.724 189.712 223.707 184.444 224.524 177.988L225.884 166.483C226.258 163.873 229.41 162.734 230.361 165.004C229.928 160.789 233.662 159.146 235.238 161.483C235.904 157.785 240.453 157.875 241.014 161.159C241.697 157.858 246.154 157.928 246.361 160.956L246.718 166.02C247.03 165.547 247.454 165.158 247.953 164.889C248.451 164.62 249.009 164.479 249.576 164.479C249.841 164.498 250.098 164.582 250.323 164.724C250.549 164.865 250.736 165.06 250.868 165.291C251.001 165.522 251.074 165.782 251.083 166.048C251.091 166.314 251.034 166.578 250.916 166.817C249.973 168.693 249.202 170.652 248.612 172.669L247.356 180.413L242.513 187.792C241.368 189.536 240.674 191.538 240.492 193.616L234.582 261.12L204.764 260.728Z" fill="#ECA490"/>
<path d="M297.571 147.369C297.362 144.482 299.115 138.238 299.158 138.144H299.154C299.154 138.144 301.425 131.035 301.425 127.117C301.424 120.344 298.957 113.803 294.485 108.718C290.013 103.633 283.843 100.351 277.128 99.4873C270.413 98.6233 263.613 100.236 258.001 104.024C252.388 107.812 248.347 113.515 246.633 120.068L243.685 120.885L245.869 129.896C245.934 130.562 246.03 131.218 246.141 131.868H246.136C246.893 138.861 245.8 142.852 245.328 144.195C244.857 145.537 244.338 147.408 246.499 148.518C246.935 148.716 247.323 149.007 247.635 149.37C247.947 149.734 248.177 150.161 248.307 150.622L250.763 157.75C252.395 162.772 255.143 165.11 260.281 163.944C264.945 162.877 268.398 162.162 269.918 161.839C270.396 165.722 269.938 169.662 268.581 173.331L299.73 162.466C298.703 160.495 298.162 154.614 297.571 147.369Z" fill="#F7AB96"/>
<path d="M243.687 120.883C246.726 120.034 250.937 118.85 254.013 118.125L255.832 123.045C258.118 122.79 260.345 122.452 262.467 123.548C263.351 124.006 264.134 124.638 264.769 125.406C265.404 126.173 265.878 127.061 266.163 128.015L268.07 134.464C270.086 139.838 265.895 149.423 260.3 149.736H247.877L250.765 157.748C252.397 162.771 254.569 165.698 259.709 164.532L272.724 161.573C276.18 160.795 277.201 156.708 276.27 153.287C274.75 148.262 273.141 143.406 271.798 138.318C271.323 136.594 270.616 134.697 270.558 132.899C270.506 131.251 271.099 129.647 272.21 128.429C273.321 127.211 274.863 126.473 276.508 126.374C278.154 126.274 279.773 126.82 281.023 127.896C282.273 128.971 283.054 130.491 283.202 132.134L283.227 132.129C283.588 133.92 284.323 137.664 284.678 139.427C285.98 145.665 293.402 147.239 298.159 147.223C298.172 147.111 299.875 140.252 301.459 138.802C302.857 137.523 303.117 135.602 303.239 133.81C303.181 131.822 303.631 129.852 304.547 128.087C304.851 127.393 305.003 126.642 304.995 125.884C304.987 125.126 304.818 124.379 304.499 123.691C303.584 121.896 303.249 119.862 303.538 117.869C303.648 117.062 303.572 116.24 303.316 115.467C303.061 114.694 302.632 113.989 302.064 113.407C300.827 112.099 299.978 110.472 299.614 108.709C299.369 107.815 298.901 106.998 298.252 106.336C297.604 105.673 296.798 105.187 295.91 104.924C294.63 104.446 293.581 103.496 292.978 102.27C292.617 101.535 292.092 100.894 291.445 100.394C290.797 99.8942 290.044 99.5495 289.242 99.3863C287.445 99.0211 286.069 98.5718 284.742 97.2432C284.143 96.6951 283.427 96.2906 282.649 96.0602C281.87 95.8298 281.05 95.7795 280.249 95.9132C279.119 96.181 277.958 96.298 276.797 96.261C275.639 96.0483 274.517 95.6705 273.465 95.139C272.773 94.8553 272.028 94.7201 271.28 94.7422C270.532 94.7642 269.796 94.943 269.121 95.267C267.875 95.8659 266.606 96.7013 265.21 96.8752C262.425 97.1674 259.389 95.8618 257.131 98.192C256.051 99.1804 254.532 100.942 253.038 101.28L249.943 102.207C249.183 102.435 248.482 102.829 247.893 103.361C247.304 103.894 246.84 104.55 246.536 105.283L245.323 108.205C244.412 110.377 241.554 111.702 241.151 114.192C240.837 116.372 243.164 118.618 243.687 120.883Z" fill="#102325"/>
<path d="M268.274 132.375C268.248 132.275 268.203 132.181 268.141 132.098C268.079 132.015 268.001 131.945 267.912 131.892C267.822 131.84 267.724 131.805 267.621 131.791C267.519 131.776 267.414 131.782 267.314 131.808L250.448 136.155L249.09 131.061C249.031 130.865 248.897 130.7 248.719 130.6C248.54 130.501 248.329 130.475 248.132 130.528C247.934 130.58 247.765 130.708 247.659 130.884C247.554 131.059 247.521 131.269 247.567 131.468L250.687 143.165C250.743 143.365 250.876 143.534 251.056 143.636C251.236 143.739 251.449 143.766 251.649 143.713C251.849 143.659 252.02 143.529 252.125 143.351C252.23 143.172 252.261 142.959 252.21 142.758L250.855 137.68L267.707 133.337C267.807 133.311 267.902 133.266 267.985 133.204C268.068 133.141 268.137 133.063 268.19 132.974C268.243 132.885 268.277 132.786 268.292 132.683C268.306 132.58 268.3 132.476 268.274 132.375Z" fill="white"/>
<path d="M257.65 185.364C243.371 218.695 220.96 270.59 220.96 270.59C253.201 283.493 277.161 321.368 277.161 321.368L286.626 322.848C302.664 307.346 309.247 279.234 311.473 258.041L317.093 214.837C319.457 184.652 299.734 162.463 299.734 162.463L270.073 171.753C266.277 173.076 261.199 177.079 257.65 185.364Z" fill="#124A53"/>
<path d="M254.441 262.237L207.897 247.073C201.431 244.971 197.346 239.535 197.346 239.535L191.033 233.014C189.965 231.911 188.623 231.112 187.144 230.7C185.665 230.288 184.104 230.278 182.62 230.67L162.832 235.902C158.859 236.767 161.049 239.779 163.298 239.707C161.143 240.542 163.715 243.459 167.993 241.998C166.19 243.628 169.442 244.952 172.936 243.806C171.514 245.35 173.561 246.852 177.508 245.633C179.334 245.259 180.45 247.056 180.45 247.056L183.528 251.814C185.94 255.657 189.6 255.037 192.615 256.295C195.631 257.553 200.218 262.391 203.661 264.515L243.167 289.102C248.779 292.594 255.498 293.847 261.99 292.612C268.482 291.377 274.272 287.744 278.21 282.435L254.441 262.237Z" fill="#F7AB96"/>
<path d="M338.854 231.468L311.48 379.509L280.734 348.749C285.218 306.966 299.622 262.774 324.969 227.499L327.194 226.51C328.28 226.027 329.453 225.773 330.642 225.763C331.83 225.754 333.007 225.989 334.101 226.454C335.195 226.919 336.181 227.604 336.999 228.466C337.817 229.329 338.448 230.351 338.854 231.468Z" fill="#DBE7E9"/>
<path d="M166.118 379.374H312.088L281.342 348.142L279.391 347.57C253.639 340.062 226.956 336.227 200.131 336.178C173.83 336.083 166.097 336.178 166.097 336.178C161.328 336.178 157.955 338.535 157.955 346.853V371.678C158.547 377.003 161.34 379.382 166.118 379.374Z" fill="#BFD3D6"/>
<path d="M193.001 304.929L255.227 316.582C256.896 316.895 258.502 315.795 258.815 314.125L259.946 308.078C260.259 306.409 259.159 304.801 257.49 304.489L195.264 292.835C193.595 292.523 191.988 293.623 191.676 295.293L190.544 301.339C190.232 303.009 191.332 304.616 193.001 304.929Z" fill="#DBE7E9"/>
<path d="M350.122 448.439C348.927 448.441 347.755 448.113 346.735 447.491C345.714 446.869 344.886 445.977 344.34 444.914L311.543 381.284C311.152 380.536 311.024 379.679 311.18 378.849L327.479 291.771C328.238 287.672 334.265 287.731 334.868 291.919L356.561 440.993C356.689 441.916 356.618 442.856 356.353 443.75C356.089 444.643 355.637 445.47 355.027 446.175C354.418 446.879 353.665 447.446 352.819 447.836C351.973 448.227 351.054 448.432 350.122 448.439ZM331.155 291.673C330.969 291.66 330.785 291.72 330.642 291.84C330.498 291.96 330.407 292.13 330.386 292.316C330.477 292.927 313.728 379.404 314.165 379.914L346.969 443.56C347.352 444.308 347.989 444.896 348.765 445.219C349.542 445.541 350.407 445.577 351.208 445.321C352.008 445.064 352.692 444.531 353.136 443.817C353.58 443.103 353.756 442.254 353.633 441.422L331.94 292.348C331.933 292.252 331.907 292.159 331.863 292.073C331.82 291.987 331.76 291.91 331.687 291.848C331.615 291.785 331.53 291.737 331.439 291.707C331.348 291.677 331.251 291.665 331.155 291.673Z" fill="#124A53"/>
<path d="M169.582 449.623C169.375 449.622 169.171 449.578 168.981 449.494C168.792 449.41 168.623 449.286 168.484 449.133C168.346 448.979 168.241 448.798 168.176 448.601C168.112 448.404 168.089 448.196 168.11 447.99L180.888 324.871C180.604 311.029 194.629 304.351 207.365 307.182L321.286 327.92C321.672 327.99 322.015 328.211 322.238 328.533C322.461 328.856 322.547 329.254 322.477 329.64C322.407 330.026 322.186 330.369 321.864 330.592C321.541 330.816 321.143 330.902 320.757 330.831L206.805 310.085C203.356 309.332 199.784 309.336 196.336 310.095C188.282 311.962 183.847 317.236 183.847 324.946C183.735 325.023 171.147 448.189 171.053 448.295C171.016 448.66 170.845 448.997 170.573 449.242C170.301 449.487 169.948 449.623 169.582 449.623Z" fill="#124A53"/>
<path d="M177.48 379.138L177.475 382.097L313.053 382.355L313.059 379.396L177.48 379.138Z" fill="#124A53"/>
<path fill-rule="evenodd" clip-rule="evenodd" d="M73.3918 180.605H70.1197C69.8846 180.604 69.6528 180.66 69.4435 180.768C69.2342 180.875 69.0534 181.03 68.916 181.221C68.7787 181.412 68.6887 181.633 68.6536 181.866C68.6184 182.098 68.6391 182.336 68.7139 182.559L95.3527 262.098H175.122C175.122 260.219 174.376 258.418 173.048 257.089C171.721 255.761 169.92 255.015 168.042 255.015H100.9L77.031 183.224C76.7755 182.461 76.2867 181.797 75.6336 181.327C74.9806 180.857 74.1963 180.604 73.3918 180.605Z" fill="#0D2135"/>
<path fill-rule="evenodd" clip-rule="evenodd" d="M552.507 363.983C553.413 363.94 554.3 364.258 554.972 364.867C555.645 365.476 556.049 366.327 556.096 367.233V385.59C556.049 386.496 555.645 387.347 554.972 387.956C554.3 388.565 553.413 388.883 552.507 388.84H456.117V363.983H552.507Z" fill="#A0B4B7"/>
<path d="M550.186 385.88H456.117V366.942H550.186C550.969 366.942 551.72 367.253 552.274 367.807C552.827 368.361 553.138 369.112 553.138 369.895V382.927C553.138 383.71 552.827 384.461 552.274 385.015C551.72 385.569 550.969 385.88 550.186 385.88Z" fill="#FDFAF5"/>
<path fill-rule="evenodd" clip-rule="evenodd" d="M518.389 371.676C519.937 371.676 521.192 372.682 521.192 373.921V386.595C521.192 387.835 519.937 388.84 518.389 388.84H443.102V371.676H518.389Z" fill="#666850"/>
<path d="M517.183 387.064H443.102V373.452H517.183C517.776 373.452 518.344 373.687 518.763 374.106C519.182 374.525 519.417 375.094 519.417 375.686V384.829C519.417 385.123 519.36 385.413 519.247 385.685C519.135 385.956 518.97 386.202 518.763 386.41C518.556 386.617 518.309 386.782 518.038 386.894C517.767 387.006 517.477 387.064 517.183 387.064Z" fill="#FDFAF5"/>
<path d="M549.589 345.044H475.048C473.741 345.044 472.682 346.104 472.682 347.411V361.615C472.682 362.923 473.741 363.983 475.048 363.983H549.589C550.896 363.983 551.955 362.923 551.955 361.615V347.411C551.955 346.104 550.896 345.044 549.589 345.044Z" fill="#0D2135"/>
<path d="M528.291 347.411H514.093V361.615H528.291V347.411Z" fill="#B1C585"/>
<path d="M533.024 361.615L541.307 347.411L549.588 361.615H533.024Z" fill="#F4B7A8"/>
<path d="M508.177 354.513C508.177 356.397 507.429 358.203 506.098 359.535C504.767 360.867 502.961 361.615 501.078 361.615C491.661 361.241 491.664 347.784 501.078 347.411C502.961 347.411 504.767 348.159 506.098 349.491C507.429 350.823 508.177 352.63 508.177 354.513Z" fill="#F8C77E"/>
<path d="M483.82 354.513L488.896 349.432C489.118 349.21 489.243 348.909 489.243 348.595C489.243 348.281 489.118 347.98 488.896 347.758C488.674 347.536 488.373 347.411 488.06 347.411C487.746 347.411 487.445 347.536 487.223 347.758L482.143 352.839L477.068 347.758C476.958 347.648 476.827 347.561 476.684 347.501C476.54 347.442 476.387 347.411 476.231 347.411C476.076 347.411 475.922 347.442 475.779 347.501C475.635 347.561 475.505 347.648 475.395 347.758C475.285 347.868 475.198 347.998 475.138 348.142C475.079 348.285 475.048 348.439 475.048 348.595C475.048 348.75 475.079 348.904 475.138 349.048C475.198 349.191 475.285 349.322 475.395 349.432L480.474 354.513L475.395 359.595C475.173 359.817 475.048 360.118 475.048 360.432C475.048 360.745 475.173 361.046 475.395 361.268C475.617 361.49 475.918 361.615 476.231 361.615C476.545 361.615 476.846 361.49 477.068 361.268L482.143 356.191L487.223 361.268C487.445 361.49 487.746 361.615 488.06 361.615C488.373 361.615 488.674 361.49 488.896 361.268C489.118 361.046 489.243 360.745 489.243 360.432C489.243 360.118 489.118 359.817 488.896 359.595L483.82 354.513Z" fill="#697171"/>
<path d="M577.393 412.514C577.375 406.241 574.876 400.231 570.443 395.795C566.01 391.36 560.002 388.859 553.732 388.84H435.411C429.141 388.858 423.133 391.359 418.699 395.794C414.265 400.23 411.766 406.241 411.748 412.514V418.433H577.393V412.514Z" fill="#A8BAAC"/>
<path d="M411.748 418.432V424.351C411.766 430.624 414.265 436.634 418.699 441.07C423.133 445.506 429.141 448.006 435.411 448.024H553.732C560.002 448.005 566.01 445.505 570.443 441.069C574.876 436.633 577.375 430.623 577.393 424.351V418.432H411.748Z" fill="#FCE2BA"/>
</g>
<defs>
<clipPath id="clip0_67_3186">
<rect width="591" height="473" fill="white"/>
</clipPath>
</defs>
</svg>
