<svg width="24" height="24" viewBox="0 0 24 24" fill="none" xmlns="http://www.w3.org/2000/svg">
<g clip-path="url(#clip0_67_3436)">
<path d="M12.007 17.525C12.4253 17.525 12.7787 17.3791 13.0672 17.0872C13.3557 16.7954 13.5 16.4413 13.5 16.025V12.5C13.5 12.0836 13.3551 11.7296 13.0652 11.4377C12.7754 11.1459 12.4238 11 12.0105 11C11.5973 11 11.2422 11.1459 10.9452 11.4377C10.6484 11.7296 10.5 12.0836 10.5 12.5V16.025C10.5 16.4413 10.6466 16.7954 10.9397 17.0872C11.2331 17.3791 11.5888 17.525 12.007 17.525ZM11.9955 9.34998C12.4568 9.34998 12.8396 9.19939 13.1437 8.89823C13.4479 8.59689 13.6 8.21564 13.6 7.75448C13.6 7.29314 13.4494 6.91039 13.1482 6.60623C12.8469 6.30206 12.4656 6.14998 12.0045 6.14998C11.5431 6.14998 11.1604 6.30056 10.8562 6.60173C10.5521 6.90306 10.4 7.28431 10.4 7.74548C10.4 8.20681 10.5506 8.58956 10.8517 8.89373C11.1531 9.19789 11.5343 9.34998 11.9955 9.34998ZM12 23.15C10.456 23.15 9.00206 22.8616 7.63823 22.285C6.27456 21.7081 5.09064 20.9176 4.08648 19.9135C3.08231 18.9093 2.29181 17.7254 1.71498 16.3617C1.13831 14.9979 0.849976 13.544 0.849976 12C0.849976 10.4516 1.13881 8.99789 1.71648 7.63873C2.29431 6.27956 3.08748 5.09673 4.09598 4.09023C5.10448 3.08373 6.28839 2.29206 7.64773 1.71523C9.00723 1.13839 10.458 0.849976 12 0.849976C13.5481 0.849976 15.0021 1.13823 16.362 1.71473C17.7218 2.29139 18.9048 3.08281 19.911 4.08898C20.9171 5.09514 21.7086 6.27839 22.2852 7.63873C22.8617 8.99906 23.15 10.4535 23.15 12.002C23.15 13.5506 22.8616 15.0027 22.2847 16.3582C21.7079 17.7136 20.9162 18.8955 19.9097 19.904C18.9032 20.9125 17.7204 21.7056 16.3612 22.2835C15.0021 22.8611 13.5483 23.15 12 23.15ZM11.9942 19.75C14.1732 19.75 16.0106 19.0041 17.5065 17.5122C19.0021 16.0202 19.75 14.1847 19.75 12.0057C19.75 9.82673 19.0041 7.98931 17.5122 6.49348C16.0202 4.99781 14.1847 4.24998 12.0057 4.24998C9.82673 4.24998 7.98931 4.99589 6.49348 6.48773C4.99781 7.97973 4.24998 9.81523 4.24998 11.9942C4.24998 14.1732 4.99589 16.0106 6.48773 17.5065C7.97973 19.0021 9.81523 19.75 11.9942 19.75Z" fill="#625B71"/>
</g>
<defs>
<clipPath id="clip0_67_3436">
<rect width="24" height="24" fill="white"/>
</clipPath>
</defs>
</svg>
