<svg width="21" height="21" viewBox="0 0 21 21" fill="none" xmlns="http://www.w3.org/2000/svg">
<rect width="20" height="20" transform="translate(0.5)" fill="white"/>
<path fill-rule="evenodd" clip-rule="evenodd" d="M20.6 10.7273C20.6 10.0182 20.5364 9.33637 20.4182 8.68182H11V12.55H16.3818C16.15 13.8 15.4455 14.8591 14.3864 15.5682V18.0773H17.6182C19.5091 16.3364 20.6 13.7727 20.6 10.7273Z" fill="#4285F4"/>
<path fill-rule="evenodd" clip-rule="evenodd" d="M11 20.4998C13.7 20.4998 15.9636 19.6044 17.6181 18.0771L14.3863 15.568C13.4909 16.168 12.3454 16.5226 11 16.5226C8.39542 16.5226 6.19087 14.7635 5.40451 12.3998H2.0636V14.9908C3.70906 18.2589 7.09088 20.4998 11 20.4998Z" fill="#34A853"/>
<path fill-rule="evenodd" clip-rule="evenodd" d="M5.40455 12.4001C5.20455 11.8001 5.09091 11.1592 5.09091 10.5001C5.09091 9.84097 5.20455 9.20006 5.40455 8.60006V6.00916H2.06364C1.38636 7.35916 1 8.88643 1 10.5001C1 12.1137 1.38636 13.641 2.06364 14.991L5.40455 12.4001Z" fill="#FBBC05"/>
<path fill-rule="evenodd" clip-rule="evenodd" d="M11 4.47727C12.4681 4.47727 13.7863 4.98182 14.8227 5.97273L17.6909 3.10455C15.9591 1.49091 13.6954 0.5 11 0.5C7.09088 0.5 3.70906 2.74091 2.0636 6.00909L5.40451 8.6C6.19088 6.23636 8.39542 4.47727 11 4.47727Z" fill="#EA4335"/>
</svg>
