<svg width="24" height="24" viewBox="0 0 24 24" fill="none" xmlns="http://www.w3.org/2000/svg">
<path d="M6.24998 23.15C5.32114 23.15 4.52231 22.8213 3.85348 22.164C3.18448 21.5066 2.84998 20.702 2.84998 19.75V4.24998C2.84998 3.29781 3.18448 2.49314 3.85348 1.83598C4.52231 1.17864 5.32114 0.849976 6.24998 0.849976H17.75C18.6786 0.849976 19.4775 1.17864 20.1465 1.83598C20.8155 2.49314 21.15 3.29781 21.15 4.24998V19.75C21.15 20.702 20.8155 21.5066 20.1465 22.164C19.4775 22.8213 18.6786 23.15 17.75 23.15H6.24998ZM6.24998 19.75H17.75V4.24998H16.2V9.74998C16.2 10.0833 16.0541 10.3291 15.7625 10.4875C15.4708 10.6458 15.1833 10.6416 14.9 10.475L14.55 10.3C14.2876 10.1333 13.9971 10.05 13.6782 10.05C13.3594 10.05 13.0666 10.1333 12.8 10.3L12.45 10.475C12.1666 10.6416 11.8875 10.6458 11.6125 10.4875C11.3375 10.3291 11.2 10.0833 11.2 9.74998V4.24998H6.24998V19.75ZM11.2 9.82498V9.74998C11.2 10.0833 11.3375 10.3291 11.6125 10.4875C11.8875 10.6458 12.1666 10.6416 12.45 10.475L12.8 10.3C13.0623 10.1333 13.3529 10.05 13.6717 10.05C13.9906 10.05 14.2833 10.1333 14.55 10.3L14.9 10.475C15.1833 10.6416 15.4708 10.6458 15.7625 10.4875C16.0541 10.3291 16.2 10.0833 16.2 9.74998V9.82498C16.2 10.1815 16.0541 10.4415 15.7625 10.605C15.4708 10.7683 15.1833 10.7666 14.9 10.6L14.55 10.4C14.2876 10.2333 13.9971 10.15 13.6782 10.15C13.3594 10.15 13.0666 10.2333 12.8 10.4L12.45 10.6C12.1666 10.7666 11.8875 10.7683 11.6125 10.605C11.3375 10.4415 11.2 10.1815 11.2 9.82498Z" fill="#625B71"/>
</svg>
