<svg width="24" height="24" viewBox="0 0 24 24" fill="none" xmlns="http://www.w3.org/2000/svg">
<path d="M4.77503 3.19995H19.3C19.6059 3.19995 19.8698 3.31562 20.0918 3.54695C20.3139 3.77812 20.425 4.04728 20.425 4.35445C20.425 4.70145 20.3139 4.97912 20.0918 5.18745C19.8698 5.39578 19.6059 5.49995 19.3 5.49995H4.77503C4.45253 5.49995 4.18019 5.39428 3.95803 5.18295C3.73603 4.97178 3.62503 4.69678 3.62503 4.35795C3.62503 4.03595 3.73603 3.76245 3.95803 3.53745C4.18019 3.31245 4.45253 3.19995 4.77503 3.19995ZM4.90003 20.775C4.57753 20.775 4.30519 20.664 4.08303 20.442C3.86103 20.2198 3.75003 19.9475 3.75003 19.625V14.325H3.22503C2.87269 14.325 2.59711 14.1958 2.39828 13.9375C2.19944 13.6791 2.14169 13.3833 2.22503 13.05L3.42503 7.89995C3.45836 7.66662 3.58428 7.45828 3.80278 7.27495C4.02128 7.09162 4.26203 6.99995 4.52503 6.99995H19.525C19.7714 6.99995 20.0038 7.09162 20.2223 7.27495C20.4408 7.45828 20.575 7.66662 20.625 7.89995L21.85 13.05C21.9 13.3833 21.8256 13.6791 21.6268 13.9375C21.4279 14.1958 21.1524 14.325 20.8 14.325H20.275V19.625C20.275 19.9475 20.1635 20.2198 19.9405 20.442C19.7177 20.664 19.4527 20.775 19.1455 20.775C18.7985 20.775 18.5209 20.664 18.3125 20.442C18.1042 20.2198 18 19.9475 18 19.625V14.325H14.05V19.625C14.05 19.9475 13.9449 20.2198 13.7345 20.442C13.524 20.664 13.2542 20.775 12.925 20.775H4.90003ZM6.02503 18.5H11.775V14.325H6.02503V18.5ZM4.75003 12.05H19.275L18.675 9.27495H5.37503L4.75003 12.05Z" fill="#625B71"/>
</svg>
