<svg width="40" height="40" viewBox="0 0 40 40" fill="none" xmlns="http://www.w3.org/2000/svg">
<g clip-path="url(#clip0_67_3380)">
<path d="M33.5298 33.592C41.0137 26.108 41.0137 13.9741 33.5298 6.49017C26.0458 -0.993791 13.9119 -0.993791 6.42795 6.49017C-1.05601 13.9741 -1.05601 26.108 6.42795 33.592C13.9119 41.0759 26.0458 41.0759 33.5298 33.592Z" fill="#2E3191" stroke="#231F20" stroke-width="0.5" stroke-miterlimit="2.6131"/>
<path fill-rule="evenodd" clip-rule="evenodd" d="M5.48437 15.1562L6.14844 15.3281C6.17969 15.3516 6.20312 15.3672 6.21875 15.3906C6.27344 15.4453 6.3125 15.5156 6.34375 15.6094C6.375 15.6953 6.39844 15.7969 6.39844 15.9062C6.39844 15.9375 6.39844 15.9844 6.39063 16.0547L7.32031 15.5078L7.4375 15.8203L6.22656 16.5L6.01562 16.6016C5.91406 16.6484 5.82812 16.6641 5.74219 16.6406C5.64062 16.6094 5.59375 16.5312 5.60156 16.4062C5.60937 16.3281 5.64062 16.2578 5.70312 16.2031C5.72656 16.1875 5.75781 16.1641 5.79687 16.1484C5.80469 16.125 5.8125 16.0938 5.82031 16.0625C5.82812 16.0312 5.82813 16 5.8125 15.9609C5.80469 15.9297 5.78125 15.8984 5.75781 15.875C5.75 15.8672 5.73437 15.8594 5.71875 15.8438L5.29688 15.7344L5.0625 16.625L4.46875 16.8516C5.22656 13.7109 6.73438 10.6953 9.14062 8.53125C9.11719 8.51562 9.10156 8.5 9.07812 8.49219C8.92969 8.39844 8.80469 8.34375 8.70312 8.3125C8.42969 8.23438 8.21094 8.27344 8.03906 8.4375C8 8.47656 7.95312 8.53125 7.90625 8.58594C7.85937 8.64844 7.83594 8.71875 7.82812 8.80469C7.82812 8.89062 7.85938 8.96875 7.92188 9.03906C7.9375 9.05469 7.95312 9.07031 7.96094 9.08594C8 9.13281 8.0625 9.16406 8.13281 9.19531C8.15625 9.20312 8.1875 9.21094 8.22656 9.21875L8.0625 9.375C8.01562 9.36719 7.97656 9.35156 7.95313 9.34375C7.85156 9.3125 7.77344 9.27344 7.71094 9.22656C7.64844 9.17969 7.59375 9.14062 7.55469 9.09375C7.45312 8.98438 7.39844 8.86719 7.38281 8.72656C7.36719 8.59375 7.41406 8.45312 7.52344 8.32031C7.57031 8.26562 7.60937 8.22656 7.63281 8.20312C7.8125 8.03906 8.02344 7.96094 8.28125 7.96094C8.47656 7.96875 8.69531 8.03125 8.92187 8.14062C9.03125 8.19531 9.15625 8.25781 9.29688 8.34375C9.3125 8.35156 9.28125 8.33594 9.3125 8.35156C10.3047 7.44531 11.3828 6.6875 12.6797 6L13.3047 6.27344L12.625 6.625L13.6484 8.47656L12.9688 8.48437L12.7734 8.14062C12.7344 8.19531 12.7031 8.24219 12.6719 8.28125C12.5625 8.41406 12.4453 8.52344 12.3203 8.61719C12.1875 8.71094 12.0469 8.77344 11.9219 8.8125C11.75 8.85938 11.5781 8.85938 11.4062 8.8125C11.2812 8.78125 11.1328 8.71094 10.9688 8.60156C10.9141 8.5625 10.8438 8.50781 10.7578 8.44531C10.8125 8.38281 10.8516 8.33594 10.8906 8.30469C10.9766 8.20312 11.0703 8.08594 11.1641 7.95312C11.2031 7.89844 11.2188 7.85937 11.2266 7.82031C11.2344 7.78125 11.2266 7.75 11.2109 7.72656C11.1719 7.66406 11.0938 7.64844 11.0234 7.64844C10.5781 7.99219 10.2266 8.25781 9.78906 8.64062L11.2344 10.1953L10.5703 10.3672L9.34375 9.04688L8.61719 9.79688L8.91406 10.0469C8.95312 10.0781 8.96094 10.1172 8.96875 10.1484C9 10.2422 8.98438 10.3594 8.92969 10.4922C8.8125 10.7734 8.69531 11.0625 8.58594 11.3437C8.55469 11.4609 8.57812 11.5625 8.65625 11.625C8.73438 11.6953 8.84375 11.7109 8.97656 11.6797C9.10938 11.6484 9.23438 11.5625 9.35938 11.4219C9.39062 11.3906 9.40625 11.3594 9.42188 11.3359C9.54688 11.1641 9.625 10.9688 9.67969 10.75C9.69531 10.6797 9.70313 10.5859 9.71094 10.4688L10.2266 10.5312C10.2109 10.6406 10.1953 10.7266 10.1719 10.7969C10.1172 11 10.0312 11.1875 9.92188 11.3437C9.90625 11.3672 9.875 11.4062 9.83594 11.4531L11.1953 11.3047L11.1563 11.5781L10.2266 11.7031L10.0078 12.8203L9.51563 12.8828L9.75 11.5469C9.53906 11.7656 9.29688 11.9062 9.01562 11.9766C8.82812 12.0234 8.66406 12.0312 8.53125 11.9922L8.64844 12.0547C8.64844 12.0703 8.64062 12.0859 8.63281 12.1016C8.60156 12.1953 8.57031 12.2812 8.51562 12.3594C8.46875 12.4453 8.41406 12.5156 8.36719 12.5781C8.32031 12.6328 8.25 12.7031 8.15625 12.7812C7.99219 12.9141 7.79688 13.0234 7.57812 13.0938C7.50781 13.1172 7.41406 13.1406 7.29688 13.1641L6.51562 12.7109C6.35938 12.9766 6.24219 13.2266 6.09375 13.5234L8.02344 14.4609L7.46875 14.8594L5.90625 14.0625L5.48437 15.1562ZM12.4766 7.53125L12.1406 6.92187C11.875 7.07031 11.6172 7.23437 11.3359 7.42969C11.3984 7.44531 11.4375 7.46094 11.4688 7.47656C11.5781 7.52344 11.6562 7.57812 11.6953 7.64062C11.7188 7.67969 11.7344 7.71875 11.7422 7.75781C11.7578 7.85938 11.6953 8.00781 11.5703 8.19531C11.5313 8.25781 11.4609 8.33594 11.3672 8.44531C11.3984 8.46875 11.4219 8.48437 11.4453 8.49219C11.8828 8.64844 12.5391 7.9375 12.4766 7.53125ZM6.89844 12.1406L8.03906 11.6641L8.35156 11.8438C8.21094 11.7109 8.14062 11.5469 8.15625 11.3437C8.16406 11.1719 8.22656 10.9922 8.35156 10.7812C8.42969 10.6406 8.46875 10.5391 8.47656 10.4688C8.47656 10.4453 8.47656 10.4297 8.46875 10.4062L8.25 10.2266C7.70312 10.9375 7.36719 11.3672 6.89844 12.1406ZM8.25 11.8359L7.14062 12.3281L7.73438 12.6719C7.8125 12.7031 7.86719 12.7109 7.90625 12.7031C7.98437 12.6875 8.03906 12.6484 8.08594 12.5703C8.14844 12.4687 8.19531 12.3125 8.22656 12.1094C8.24219 12.0469 8.25 11.9531 8.25 11.8359Z" fill="white"/>
<path fill-rule="evenodd" clip-rule="evenodd" d="M24.1953 5.35157L23.5234 5.17188L23.0781 7.26564L22.5547 6.82032L22.9375 5.03907C22.5781 4.96095 22.3047 4.91407 21.9297 4.87501L21.7031 7.02345L21.1406 6.6172L21.1875 6.14064C21.1172 6.21095 21.0547 6.25782 21 6.29689C20.8125 6.41407 20.6172 6.46876 20.3984 6.46095C20.1641 6.45313 19.9531 6.37501 19.7734 6.2422C19.5859 6.10157 19.4766 5.9297 19.4375 5.71876C19.4375 5.69532 19.4297 5.66407 19.4375 5.62501C19.4453 5.44532 19.5391 5.29689 19.7109 5.1797C19.8906 5.0547 20.1016 5.00001 20.3438 5.00782C20.6406 5.01564 20.875 5.09376 21.0547 5.2422C21.1094 5.28907 21.1719 5.3672 21.2344 5.46095L21.2266 5.60939C21.1641 5.57032 21.1094 5.53907 21.0703 5.51564C20.9297 5.45314 20.7891 5.42189 20.6328 5.41407C20.5234 5.41407 20.4063 5.42189 20.2656 5.45314C20.1328 5.48439 20.0156 5.53907 19.9219 5.6172C19.8281 5.69532 19.7813 5.77345 19.7813 5.85939C19.7813 5.87501 19.7813 5.89845 19.7891 5.91407C19.7969 5.93751 19.8047 5.95314 19.8203 5.96876C19.8672 6.02345 19.9688 6.0547 20.1172 6.06251C20.2109 6.06251 20.2969 6.06251 20.3984 6.04689C20.4922 6.03126 20.5781 6.00782 20.6484 5.97657C20.8203 5.90626 20.9609 5.82814 21.0859 5.75001C21.125 5.72657 21.1641 5.69532 21.2109 5.65626L21.2031 5.79689L21.3047 4.82814C20.4141 4.73439 19.5313 4.73439 18.6328 4.82814L18.8516 6.91407L18.2188 6.65626L18.1406 5.89064C17.875 6.09376 17.4531 6.18751 17.1328 6.08595C17.0938 6.07032 17.0391 6.0547 16.9766 6.02345C16.9766 6.03126 16.9766 6.03907 16.9766 6.03907C16.9609 6.07814 16.9141 6.13282 16.8359 6.18751C16.7891 6.23439 16.7266 6.28126 16.6484 6.32814C16.6328 6.33595 16.6172 6.34376 16.6016 6.35939L17.5234 6.92189L17.3047 7.17189L16.1328 6.42189L15.9375 6.28126C15.8516 6.21876 15.7969 6.14064 15.7734 6.0547C15.75 5.95314 15.7969 5.87501 15.9141 5.82032C15.9922 5.78907 16.0625 5.78907 16.1406 5.82032C16.1641 5.82814 16.1953 5.85157 16.2344 5.87501C16.2578 5.8672 16.2734 5.85939 16.2969 5.85157C16.3203 5.84376 16.3438 5.82814 16.375 5.79689C16.4063 5.77345 16.4141 5.75001 16.4141 5.72657C16.4141 5.70314 16.4141 5.69532 16.4063 5.68751L16.2891 5.19532L15.3984 5.44532L14.9922 5.03907C16.2656 4.63282 17.1016 4.44532 18.2188 4.32814L17.9766 4.00001C17.9375 3.94532 17.8984 3.90626 17.8672 3.87501C17.7734 3.78126 17.6797 3.71876 17.5859 3.68751C17.5234 3.66407 17.4688 3.65626 17.4219 3.64845C17.375 3.64064 17.3359 3.64064 17.2813 3.64845C17.2656 3.64845 17.2578 3.64845 17.2422 3.64845C17.2344 3.64845 17.2188 3.64845 17.2109 3.64845L17.0391 3.19532C17.0859 3.18751 17.1172 3.18751 17.1484 3.1797C17.2578 3.17189 17.3516 3.1797 17.4453 3.21095C17.5313 3.23439 17.6172 3.27345 17.6953 3.32032C17.8203 3.41407 17.9531 3.5547 18.0938 3.75001C18.1406 3.81251 18.1875 3.90626 18.2578 4.01564L18.4453 4.3047C20.4609 4.1172 22.1406 4.29689 23.9609 4.75001L24.1953 5.35157ZM18.1016 5.3047L18.0547 4.8672L16.9141 5.0547L17.0781 5.75001C17.1094 5.75782 17.1406 5.75782 17.1563 5.75782C17.5547 5.77345 17.9922 5.66407 18.1016 5.3047Z" fill="white"/>
<path fill-rule="evenodd" clip-rule="evenodd" d="M31.7344 11.4766L31.1484 10.8281C31.1484 10.8672 31.1484 10.8984 31.1484 10.9219C31.1406 11.0078 31.125 11.0781 31.1094 11.1328C31.0859 11.1875 31.0703 11.2266 31.0547 11.25C31.0391 11.2734 31.0156 11.3047 30.9844 11.3281C30.9141 11.3906 30.8359 11.4297 30.75 11.4297C30.6484 11.4297 30.5313 11.3984 30.4063 11.3281C30.3438 11.2891 30.2891 11.25 30.2344 11.1875C30.0391 10.9687 29.9609 10.6953 30 10.3516C30.0156 10.1641 30.0625 9.96875 30.1406 9.75C30.1641 9.67969 30.2031 9.59375 30.25 9.48438L30.4844 9.61719C30.4609 9.66406 30.4453 9.70312 30.4297 9.73437C30.3438 9.92969 30.2969 10.1094 30.2813 10.2813C30.2734 10.375 30.2812 10.4609 30.3125 10.5313C30.3359 10.6016 30.375 10.6641 30.4219 10.7187C30.4609 10.7656 30.5078 10.7969 30.5547 10.8203C30.6016 10.8437 30.6484 10.8516 30.6875 10.8516C30.7266 10.8516 30.7734 10.8359 30.8047 10.7969C30.8594 10.75 30.8984 10.6641 30.9297 10.5391C30.9453 10.4844 30.9609 10.3828 30.9766 10.2266C30.9844 10.1875 30.9922 10.1563 31.0156 10.1406C31.0547 10.1016 31.1016 10.1094 31.1406 10.1641L32.0547 11.1797L31.7344 11.4766Z" fill="white"/>
<path fill-rule="evenodd" clip-rule="evenodd" d="M33.2813 14.3594L32.8203 13.5625C32.7969 13.5469 32.7734 13.5313 32.7578 13.5313C32.6953 13.5157 32.6328 13.5235 32.5625 13.5625C32.5234 13.5938 32.4688 13.6016 32.4141 13.5704C32.3594 13.5391 32.3125 13.5 32.2734 13.4375C32.2422 13.3829 32.2188 13.3282 32.2188 13.2813C32.2188 13.2032 32.25 13.0938 32.3125 12.9454C32.3828 12.7813 32.4531 12.6797 32.5234 12.6407C32.6016 12.5938 32.6719 12.6094 32.75 12.6641C32.7734 12.6797 32.8047 12.7188 32.8516 12.7735L33.6406 14.1485L33.2813 14.3594Z" fill="white"/>
<path fill-rule="evenodd" clip-rule="evenodd" d="M34.9609 16.9844L34.7969 16.2969L32.7812 16.9531L32.9062 16.2969L34.6562 15.7188C34.5547 15.3438 34.4687 15.1016 34.3125 14.7188L32.3906 15.5547L32.4531 14.875L34.0937 14.1797C33.7344 13.3281 33.3047 12.4766 32.7734 11.6875L31.0156 12.8672L30.9453 12.1875L32.4297 11.1875C31.7812 10.2266 30.9219 9.3125 30.0547 8.55469L28.664 10.1484L28.4219 9.50781L29.5937 8.15625C29.2812 7.91406 29.0859 7.74219 28.7422 7.52344L27.5625 9.33594L27.2344 8.73438L27.5156 8.29688C27.4297 8.28906 27.3594 8.28125 27.3047 8.27344C27.1406 8.24219 26.9844 8.1875 26.8437 8.11719C26.6953 8.03906 26.5781 7.95312 26.4844 7.85156C26.3672 7.71875 26.2812 7.57031 26.25 7.39844C26.2187 7.27344 26.2109 7.10938 26.2344 6.91406C26.2422 6.85156 26.2578 6.76562 26.2734 6.65625C26.3515 6.67187 26.4141 6.6875 26.4609 6.70313C26.5859 6.73438 26.7344 6.75781 26.8984 6.78125C26.9609 6.78906 27.0078 6.78906 27.0469 6.77344C27.0859 6.75781 27.1094 6.74219 27.125 6.71094C27.1484 6.67188 27.1484 6.61719 27.125 6.54688C27.125 6.53906 27.1172 6.53906 27.1094 6.52344L26.3437 6.14062L26.3047 5.55469C27.875 6.28906 29.0312 6.96875 30.2344 8.02344L30.3281 7.58594C30.3437 7.51562 30.3437 7.46094 30.3437 7.42188C30.3437 7.28906 30.3281 7.17969 30.2891 7.08594C30.2578 7.02344 30.2344 6.97656 30.2109 6.9375C30.1875 6.89844 30.1562 6.86719 30.1172 6.82813C30.1094 6.82031 30.1016 6.8125 30.0937 6.80469C30.0859 6.79688 30.0781 6.78906 30.0703 6.78125L30.2891 6.35156C30.3203 6.38281 30.3516 6.40625 30.3672 6.42187C30.4453 6.5 30.5078 6.57813 30.5469 6.66406C30.5859 6.75 30.6172 6.83594 30.6328 6.92188C30.6484 7.07812 30.6328 7.27344 30.5781 7.5C30.5625 7.57812 30.5234 7.67188 30.4922 7.80469L30.3984 8.16406C33.2266 10.6875 34.6406 13.4766 35.3906 16.5234L34.9609 16.9844ZM28.2422 7.19531C27.9219 6.98438 27.7734 6.86719 27.414 6.67969C27.4297 6.74219 27.4375 6.75781 27.4375 6.78906C27.4453 6.90625 27.4375 7 27.3984 7.07031C27.375 7.10938 27.3516 7.14063 27.3203 7.17188C27.2344 7.23438 27.0781 7.25 26.8516 7.22656C26.7812 7.21875 26.6719 7.19531 26.5312 7.16406C26.5234 7.20312 26.5234 7.22656 26.5234 7.25C26.5469 7.40625 26.6719 7.53906 26.8984 7.65625C27.1875 7.80469 27.5469 7.83594 27.8594 7.76563C27.8203 7.85156 27.8047 7.86719 28.2422 7.19531Z" fill="white"/>
<path d="M4.28906 22.6953L6.96875 22.0781L7.10938 22.6797L5.5625 23.5391C5.83594 23.4531 6.07031 23.3828 6.27344 23.3281C6.47656 23.2734 6.64063 23.2266 6.78125 23.1953L7.20312 23.1016L7.32031 23.6172L4.64062 24.2344L4.5 23.6328L6.09375 22.7578C5.875 22.8281 5.66406 22.8984 5.46094 22.9531C5.25781 23.0156 5.05469 23.0625 4.85937 23.1094L4.40625 23.2109L4.28906 22.6953Z" fill="white"/>
<path d="M5.97656 25.0313L6.10156 25.3516L7.16406 24.7656L5.97656 25.0313ZM4.75781 24.7109L7.52344 24.2422L7.77344 24.8984L5.39844 26.3984L5.1875 25.8438L5.65625 25.5859L5.49219 25.1484L4.97656 25.2656L4.75781 24.7109Z" fill="white"/>
<path d="M5.71094 27.0156L7.67187 25.9766L7.45313 25.5625L7.92188 25.3125L8.65625 26.6953L8.1875 26.9453L7.95313 26.5078L5.99219 27.5469L5.71094 27.0156Z" fill="white"/>
<path d="M6.47656 28.4219L8.8125 26.9609L9.125 27.4609L6.78906 28.9219L6.47656 28.4219Z" fill="white"/>
<path d="M8.71093 29.625L9.10936 29.3281C9.35155 29.1484 9.49218 29.0156 9.53124 28.9453C9.5703 28.875 9.55468 28.7969 9.49999 28.7266C9.4453 28.6562 9.37499 28.625 9.29686 28.6406C9.21874 28.6562 9.05468 28.7578 8.81249 28.9375L8.41405 29.2344C8.17967 29.4141 8.03905 29.5391 7.99999 29.6172C7.96093 29.6875 7.96874 29.7656 8.02342 29.8359C8.07811 29.9062 8.14843 29.9375 8.22655 29.9219C8.31249 29.8984 8.46874 29.8047 8.71093 29.625ZM8.2578 28.6016C8.52342 28.3984 8.71874 28.2656 8.85936 28.1875C8.99218 28.1094 9.10936 28.0703 9.21093 28.0625C9.35155 28.0469 9.48436 28.0703 9.60155 28.125C9.71874 28.1797 9.82811 28.2812 9.92968 28.4062C10.0312 28.5391 10.0937 28.6641 10.1094 28.7969C10.1328 28.9219 10.1172 29.0547 10.0625 29.1875C10.0234 29.2812 9.95311 29.3828 9.84374 29.4922C9.73436 29.6016 9.54686 29.7578 9.28905 29.9531C9.02343 30.1484 8.82811 30.2891 8.6953 30.3594C8.56249 30.4375 8.4453 30.4766 8.34374 30.4844C8.20311 30.5 8.07811 30.4766 7.96093 30.4219C7.84374 30.3672 7.73436 30.2734 7.6328 30.1406C7.53124 30.0078 7.47655 29.8828 7.45311 29.75C7.42968 29.6172 7.4453 29.4922 7.49999 29.3594C7.53905 29.2656 7.60936 29.1641 7.71874 29.0547C7.80468 28.9531 7.99217 28.7969 8.2578 28.6016Z" fill="white"/>
<path d="M8.67188 31.1719L10.5859 29.1875L11.0312 29.6172L10.2031 31.1797C10.3906 30.9609 10.5469 30.7734 10.6875 30.6172C10.8203 30.4609 10.9453 30.3359 11.0391 30.2266L11.3359 29.9141L11.7188 30.2812L9.8125 32.2656L9.36719 31.8359L10.2266 30.2344C10.0859 30.4141 9.94531 30.5859 9.80469 30.7422C9.66406 30.9062 9.52344 31.0547 9.38281 31.2031L9.0625 31.5391L8.67188 31.1719Z" fill="white"/>
<path d="M11.3828 32.1562L11.6641 32.3516L12.2109 31.2734L11.3828 32.1562ZM10.1953 32.5781L12.2266 30.6406L12.8047 31.0469L11.6719 33.6172L11.1875 33.2812L11.4297 32.8047L11.0469 32.5391L10.6875 32.9297L10.1953 32.5781Z" fill="white"/>
<path d="M13.2813 34.4688L12.1406 33.8359L13.4766 31.4297L13.9922 31.7188L12.9297 33.6406L13.5547 33.9844L13.2813 34.4688Z" fill="white"/>
<path d="M14.8437 34.0703L15.3594 34.25L15.3359 34.3282C15.289 34.4688 15.2656 34.5782 15.2812 34.6485C15.289 34.7188 15.3359 34.7657 15.4062 34.7891C15.4687 34.8125 15.5234 34.8047 15.5703 34.7735C15.6172 34.7422 15.6562 34.6875 15.6875 34.6094C15.7344 34.4844 15.6875 34.336 15.5625 34.1563C15.539 34.125 15.5234 34.1016 15.5156 34.086C15.5078 34.0782 15.5078 34.0703 15.4922 34.0547C15.3281 33.8125 15.2265 33.6407 15.2031 33.5391C15.1875 33.461 15.1797 33.3829 15.1875 33.2969C15.1953 33.211 15.2109 33.1172 15.2422 33.0235C15.3203 32.7969 15.4453 32.6407 15.6094 32.5469C15.7734 32.461 15.9609 32.4532 16.1797 32.5235C16.414 32.6016 16.5625 32.7266 16.6406 32.8985C16.7187 33.0703 16.7187 33.2735 16.6328 33.5157C16.6328 33.5235 16.625 33.5391 16.6172 33.5547C16.6094 33.5703 16.6015 33.586 16.6015 33.5938L16.1015 33.4219L16.1094 33.3907C16.1484 33.2735 16.164 33.1875 16.1484 33.1172C16.1328 33.0469 16.1015 33 16.039 32.9766C15.9844 32.961 15.9375 32.961 15.8906 32.9922C15.8437 33.0235 15.8125 33.0704 15.789 33.1407C15.75 33.25 15.8047 33.3985 15.9453 33.586C15.9687 33.6172 15.9922 33.6485 16 33.6641C16.0156 33.6797 16.0234 33.7032 16.0469 33.7266C16.1953 33.9297 16.2812 34.086 16.3047 34.1954C16.3203 34.2657 16.3203 34.3438 16.3125 34.4297C16.3047 34.5157 16.2812 34.6016 16.2578 34.6875C16.1719 34.9453 16.039 35.125 15.8672 35.2266C15.6953 35.3282 15.4922 35.336 15.2656 35.2578C15.0234 35.1719 14.8672 35.0469 14.789 34.8672C14.7109 34.6875 14.7187 34.4688 14.8125 34.2032C14.8203 34.1875 14.8281 34.1719 14.8281 34.1485C14.8203 34.1407 14.8281 34.1094 14.8437 34.0703Z" fill="white"/>
<path d="M16.5547 35.5703L17.0313 32.8594L18.3828 33.1016L18.2891 33.625L17.5156 33.4844L17.4297 33.9844L18.1484 34.1094L18.0547 34.6562L17.3359 34.5312L17.2344 35.125L18.0078 35.2656L17.9141 35.8203L16.5547 35.5703Z" fill="white"/>
<path d="M19.1484 34.3047C19.1563 34.3047 19.1719 34.3047 19.1875 34.3047C19.2031 34.3047 19.2109 34.3047 19.2266 34.3047C19.3516 34.3047 19.4375 34.2813 19.4922 34.2266C19.5469 34.1719 19.5703 34.0859 19.5703 33.9531C19.5703 33.8359 19.5469 33.75 19.5 33.7031C19.4531 33.6563 19.3672 33.625 19.2422 33.625C19.2344 33.625 19.2188 33.625 19.2031 33.625C19.1875 33.625 19.1719 33.625 19.1641 33.625L19.1484 34.3047ZM18.5312 35.8984L18.5781 33.1484L19.2422 33.1563C19.4609 33.1563 19.6172 33.1719 19.7187 33.1953C19.8203 33.2188 19.8984 33.2578 19.9531 33.3125C20.0234 33.375 20.0781 33.4609 20.1094 33.5547C20.1406 33.6484 20.1563 33.7656 20.1563 33.8906C20.1563 34.0469 20.125 34.1797 20.0703 34.2891C20.0156 34.3984 19.9375 34.4844 19.8281 34.5469C20.0078 34.6406 20.1016 34.8516 20.1094 35.1797C20.1094 35.1875 20.1094 35.1875 20.1094 35.1875C20.1094 35.2188 20.1094 35.2734 20.1094 35.3359C20.1094 35.6484 20.1484 35.8438 20.2422 35.9219L19.5547 35.9063C19.5391 35.8516 19.5312 35.7891 19.5234 35.7266C19.5156 35.6641 19.5156 35.5938 19.5156 35.5234C19.5156 35.4766 19.5156 35.4297 19.5234 35.3672C19.5234 35.3047 19.5313 35.2656 19.5313 35.2422C19.5313 35.0703 19.5156 34.9609 19.4766 34.8984C19.4375 34.8359 19.3672 34.8047 19.2578 34.8047H19.1328L19.1172 35.9063L18.5312 35.8984Z" fill="white"/>
<path d="M21.1562 35.8828L20.3516 33.1875L20.9766 33.1328L21.3203 34.5547C21.3359 34.6172 21.3516 34.7031 21.375 34.8047C21.3984 34.9063 21.4219 35.0234 21.4453 35.1406V35.1094C21.4531 34.8203 21.4531 34.6328 21.4609 34.5469L21.5547 33.0859L22.1797 33.0312L21.8438 35.8281L21.1562 35.8828Z" fill="white"/>
<path d="M22.9141 35.6641L22.25 32.9922L22.8203 32.8516L23.4844 35.5234L22.9141 35.6641Z" fill="white"/>
<path d="M24.7812 34.0469L25.3281 33.8594C25.3359 33.875 25.3437 33.8907 25.3515 33.9063C25.3594 33.9219 25.3672 33.9532 25.3828 33.9844C25.4922 34.3047 25.5078 34.5625 25.4375 34.7578C25.3594 34.9532 25.1953 35.1016 24.9297 35.1875C24.7734 35.2422 24.6328 35.2578 24.5 35.2422C24.3672 35.2266 24.25 35.1719 24.1406 35.0782C24.0625 35.0157 23.9922 34.9141 23.9219 34.7735C23.8515 34.6328 23.7656 34.4141 23.6562 34.1016C23.5469 33.7891 23.4765 33.5547 23.4531 33.4063C23.4219 33.2578 23.4219 33.1328 23.4375 33.0313C23.4687 32.8985 23.5234 32.7813 23.6172 32.6875C23.7109 32.5938 23.8281 32.5157 23.9844 32.4688C24.2422 32.375 24.4687 32.3907 24.6562 32.5C24.8437 32.6094 24.9922 32.8282 25.1015 33.1407L25.1094 33.1641L24.5625 33.3516C24.5 33.1719 24.4375 33.0547 24.375 33C24.3125 32.9375 24.2422 32.9219 24.164 32.9532C24.0781 32.9844 24.0312 33.0469 24.0234 33.1485C24.0234 33.25 24.0859 33.4844 24.2109 33.8594L24.2265 33.9063C24.3672 34.3047 24.4687 34.5469 24.5312 34.625C24.5937 34.7032 24.6719 34.7266 24.7656 34.6953C24.8515 34.6641 24.8984 34.6172 24.9062 34.5391C24.914 34.461 24.8906 34.336 24.8281 34.1563L24.7812 34.0469Z" fill="white"/>
<path d="M26.3047 34.6641L24.9688 32.2578L26.1719 31.5938L26.4297 32.0625L25.7422 32.4453L25.9844 32.8906L26.6172 32.5391L26.8828 33.0234L26.25 33.3594L26.5391 33.8828L27.2266 33.5L27.5 33.9922L26.3047 34.6641Z" fill="white"/>
<path d="M28.2187 32.5391L28.6562 32.2188L28.7031 32.2813C28.7891 32.4063 28.8672 32.4766 28.9297 32.5079C28.9922 32.5391 29.0547 32.5313 29.1172 32.4844C29.1641 32.4453 29.1953 32.3985 29.1953 32.3438C29.1953 32.2813 29.1719 32.2188 29.125 32.1563C29.0469 32.0469 28.8984 32 28.6875 32C28.6484 32 28.625 32 28.6094 32C28.6016 32 28.5937 32 28.5781 32C28.2812 32 28.0859 31.9766 27.9844 31.9454C27.9141 31.9141 27.8437 31.875 27.7734 31.8203C27.7031 31.7657 27.6406 31.6954 27.5859 31.6172C27.4453 31.4219 27.3828 31.2344 27.4062 31.0469C27.4297 30.8594 27.5312 30.7032 27.7109 30.5703C27.9062 30.4297 28.1016 30.375 28.2812 30.4063C28.4609 30.4375 28.6328 30.5625 28.7812 30.7657C28.7891 30.7735 28.7969 30.7891 28.8047 30.8047C28.8125 30.8203 28.8203 30.836 28.8281 30.8438L28.3984 31.1563L28.375 31.125C28.3047 31.0313 28.2344 30.961 28.1719 30.9375C28.1094 30.9063 28.0469 30.9141 27.9922 30.9532C27.9453 30.9844 27.9219 31.0313 27.9219 31.086C27.9219 31.1407 27.9375 31.1954 27.9844 31.2579C28.0547 31.3516 28.2031 31.3985 28.4375 31.3907C28.4766 31.3907 28.5156 31.3907 28.5391 31.3907C28.5547 31.3907 28.5859 31.3907 28.6172 31.3907C28.8672 31.3828 29.0469 31.4063 29.1484 31.4532C29.2109 31.4844 29.2812 31.5235 29.3437 31.5782C29.4062 31.6329 29.4687 31.6954 29.5234 31.7735C29.6875 32 29.7578 32.2032 29.7422 32.4063C29.7266 32.6016 29.6172 32.7735 29.4141 32.9141C29.2031 33.0625 29.0078 33.1172 28.8203 33.0782C28.6328 33.0391 28.4531 32.9063 28.2891 32.6797C28.2812 32.6641 28.2656 32.6485 28.2578 32.6329C28.2578 32.6016 28.2422 32.5782 28.2187 32.5391Z" fill="white"/>
<path d="M30.4687 30.5L30.8906 30.1016C30.9062 30.1094 30.914 30.125 30.9297 30.1406C30.9453 30.1563 30.9609 30.1719 30.9922 30.2031C31.2187 30.4453 31.3437 30.6797 31.3515 30.8906C31.3672 31.1016 31.2656 31.3047 31.0625 31.4922C30.9453 31.6016 30.8203 31.6797 30.6953 31.7188C30.5703 31.7578 30.4375 31.75 30.3047 31.711C30.2109 31.6797 30.1015 31.6172 29.9844 31.5235C29.8672 31.4297 29.6875 31.2578 29.4687 31.0156C29.2422 30.7735 29.0859 30.586 29 30.461C28.914 30.336 28.8594 30.2188 28.8359 30.125C28.8047 29.9922 28.8125 29.8594 28.8594 29.7344C28.9062 29.6094 28.9844 29.4922 29.1015 29.3828C29.3047 29.1953 29.5156 29.1172 29.7265 29.1406C29.9453 29.1719 30.164 29.3047 30.3906 29.5469L30.4062 29.5703L29.9844 29.961C29.8515 29.8281 29.75 29.7422 29.6719 29.711C29.5937 29.6797 29.5234 29.6953 29.4609 29.7578C29.3906 29.8203 29.375 29.8985 29.414 29.9922C29.4531 30.086 29.6015 30.2735 29.875 30.5625L29.914 30.6016C30.2031 30.9141 30.3984 31.0938 30.4844 31.1406C30.5781 31.1875 30.6562 31.1797 30.7265 31.1094C30.789 31.0469 30.8125 30.9844 30.789 30.9063C30.7656 30.8281 30.6953 30.7266 30.5625 30.586L30.4687 30.5Z" fill="white"/>
<path d="M32.0547 30.3906L29.8828 28.6953L30.25 28.2266L31.0703 28.8672L31.3594 28.4922L30.5391 27.8516L30.8984 27.3984L33.0703 29.0937L32.7109 29.5469L31.8125 28.8438L31.5234 29.2187L32.4219 29.9219L32.0547 30.3906Z" fill="white"/>
<path d="M33.4375 28.5391L31.0312 27.2031L31.6953 26L32.1641 26.2578L31.7812 26.9453L32.2266 27.1875L32.5781 26.5547L33.0625 26.8203L32.7109 27.4531L33.2344 27.7422L33.6172 27.0547L34.1094 27.3281L33.4375 28.5391Z" fill="white"/>
<path d="M34.4141 26.7734L31.8438 25.7812L32.1406 25.0078L33.3125 25.2187C33.3203 25.2187 33.3906 25.2344 33.5313 25.2734C33.6719 25.3047 33.8047 25.3437 33.9453 25.375C33.8516 25.3203 33.7344 25.2578 33.5937 25.1875C33.4531 25.1094 33.375 25.0703 33.3672 25.0625L32.3594 24.4375L32.6562 23.6719L35.2266 24.6563L35.0234 25.1797L33.0547 24.3672L34.8984 25.5078L34.7344 25.9297L32.6016 25.5391L34.6094 26.25L34.4141 26.7734Z" fill="white"/>
<path d="M35.3828 23.9766L32.7031 23.3594L33.0156 22.0156L33.5391 22.1328L33.3594 22.8984L33.8516 23.0156L34.0156 22.3047L34.5547 22.4297L34.3906 23.1406L34.9766 23.2734L35.1562 22.5078L35.7031 22.6328L35.3828 23.9766Z" fill="white"/>
<path d="M19.9766 31.7656C26.453 31.7656 31.7031 26.5155 31.7031 20.0391C31.7031 13.5627 26.453 8.3125 19.9766 8.3125C13.5002 8.3125 8.25 13.5627 8.25 20.0391C8.25 26.5155 13.5002 31.7656 19.9766 31.7656Z" fill="white" stroke="#231F20" stroke-width="0.5" stroke-miterlimit="2.6131"/>
<path fill-rule="evenodd" clip-rule="evenodd" d="M20.5469 9.64062C23.0312 9.77344 25.2812 10.7813 27 12.3516L24.4766 14.875C24.3359 14.8281 24.1797 14.7969 24.0234 14.7969C23.2656 14.7969 22.6562 15.4062 22.6562 16.1641C22.6562 16.3203 22.6875 16.4766 22.7344 16.6172L21.6406 17.7109C21.3125 17.4922 20.9453 17.3359 20.5469 17.2578V16.2188C21.0078 16 21.3203 15.5312 21.3203 14.9844C21.3203 14.4375 21 13.9688 20.5469 13.75V9.64062ZM27.8281 13.1953L25.3125 15.7109C25.3594 15.8516 25.3906 16.0078 25.3906 16.1641C25.3906 16.9219 24.7734 17.5312 24.0234 17.5312C23.8672 17.5312 23.7109 17.5 23.5703 17.4531L22.4766 18.5469C22.6875 18.875 22.8437 19.2422 22.9141 19.6406H24.0469C24.2734 19.2109 24.7344 18.9141 25.2578 18.9141C25.7812 18.9141 26.2344 19.2109 26.4687 19.6406H30.3828C30.2891 17.1797 29.3438 14.9375 27.8281 13.1953ZM30.3594 20.8281C30.1797 23.2344 29.1797 25.4141 27.6406 27.0859L25.1172 24.5625C25.1641 24.4219 25.1953 24.2656 25.1953 24.1094C25.1953 23.3516 24.5859 22.7422 23.8281 22.7422C23.6719 22.7422 23.5156 22.7656 23.375 22.8203L22.4453 21.8906C22.6641 21.5781 22.8203 21.2188 22.9062 20.8359H24.0078C24.2187 21.3203 24.7031 21.6641 25.2656 21.6641C25.8281 21.6641 26.3125 21.3203 26.5234 20.8359H30.3594V20.8281ZM26.7969 27.9063L24.2812 25.3906C24.1406 25.4375 23.9844 25.4688 23.8281 25.4688C23.0703 25.4688 22.4609 24.8594 22.4609 24.1016C22.4609 23.9375 22.4922 23.7891 22.5391 23.6484L21.5937 22.7031C21.2812 22.9063 20.9297 23.0469 20.5469 23.1172V24.6016C20.6953 24.6641 20.8281 24.7578 20.9453 24.8828C21.4766 25.4141 21.4766 26.2812 20.9453 26.8203C20.8281 26.9375 20.6875 27.0312 20.5469 27.1016V30.4297C22.9297 30.3047 25.1016 29.375 26.7969 27.9063ZM19.3672 30.4297C16.9922 30.2891 14.8281 29.3594 13.1406 27.8828L15.6641 25.3594C15.7891 25.3984 15.9141 25.4141 16.0469 25.4141C16.8047 25.4141 17.4141 24.7969 17.4141 24.0469C17.4141 23.9141 17.3984 23.7812 17.3594 23.6641L18.3359 22.6875C18.6406 22.8906 18.9844 23.0391 19.3594 23.1172V24.6406C19.2344 24.7031 19.1094 24.7891 19.0078 24.8984C18.4766 25.4297 18.4766 26.2969 19.0078 26.8359C19.1172 26.9453 19.2344 27.0234 19.3594 27.0938V30.4297H19.3672ZM12.2969 27.0625L14.7891 24.5703C14.7188 24.4063 14.6875 24.2344 14.6875 24.0469C14.6875 23.2891 15.2969 22.6797 16.0547 22.6797C16.2422 22.6797 16.4141 22.7188 16.5781 22.7813L17.5078 21.8516C17.3047 21.5469 17.1484 21.1953 17.0703 20.8281H15.3672C15.3047 20.9688 15.2109 21.0938 15.1016 21.2031C14.5703 21.7344 13.7031 21.7344 13.1641 21.2031C13.0469 21.0859 12.9609 20.9609 12.8984 20.8281H9.60156C9.78125 23.2188 10.7656 25.3906 12.2969 27.0625ZM9.57812 19.6406C9.67188 17.1875 10.6094 14.9531 12.1094 13.2187L14.8828 15.9922C14.8203 16.1484 14.7812 16.3203 14.7812 16.5078C14.7812 17.2656 15.3906 17.875 16.1484 17.875C16.3281 17.875 16.5 17.8359 16.6641 17.7734L17.4688 18.5781C17.2656 18.8984 17.1172 19.25 17.0469 19.6406H15.3594C15.2969 19.5078 15.2031 19.375 15.0938 19.2656C14.5625 18.7344 13.6953 18.7344 13.1562 19.2656C13.0469 19.375 12.9531 19.5078 12.8906 19.6406H9.57812ZM12.9375 12.375L15.7656 15.2031C15.8906 15.1641 16.0234 15.1484 16.1641 15.1484C16.9219 15.1484 17.5312 15.7578 17.5312 16.5156C17.5312 16.6562 17.5078 16.7891 17.4766 16.9141L18.3047 17.7422C18.625 17.5234 18.9844 17.3672 19.375 17.2812V16.2344C18.9141 16.0156 18.5938 15.5469 18.5938 15C18.5938 14.4531 18.9141 13.9844 19.375 13.7656V9.65625C16.8906 9.78906 14.6484 10.7969 12.9375 12.375Z" fill="#EC1C24"/>
</g>
<defs>
<clipPath id="clip0_67_3380">
<rect width="40" height="40" fill="white"/>
</clipPath>
</defs>
</svg>
