<svg width="24" height="24" viewBox="0 0 24 24" fill="none" xmlns="http://www.w3.org/2000/svg">
<g clip-path="url(#clip0_67_3428)">
<path d="M2.84998 19.75V12.95C2.29998 12.95 1.82914 12.7541 1.43748 12.3625C1.04581 11.9708 0.849976 11.5 0.849976 10.95V7.62498C0.849976 6.67498 1.17914 5.87081 1.83748 5.21248C2.49581 4.55414 3.29998 4.22498 4.24998 4.22498H6.52498C6.50831 4.07498 6.49164 3.93039 6.47498 3.79123C6.45831 3.65189 6.44998 3.50481 6.44998 3.34998C6.43331 2.36664 6.77564 1.53748 7.47698 0.862476C8.17848 0.187476 9.01948 -0.150024 9.99998 -0.150024C10.3666 -0.150024 10.7208 -0.100024 11.0625 -2.44081e-05C11.4041 0.0999756 11.725 0.241642 12.025 0.424976C12.325 0.241642 12.6541 0.0999756 13.0125 -2.44081e-05C13.3708 -0.100024 13.7333 -0.150024 14.1 -0.150024C15.0721 -0.150024 15.8986 0.185392 16.5792 0.856226C17.2597 1.52706 17.6 2.35831 17.6 3.34998C17.6 3.50748 17.5958 3.65198 17.5875 3.78348C17.5791 3.91481 17.5583 4.06198 17.525 4.22498H19.75C20.7 4.22498 21.5041 4.55414 22.1625 5.21248C22.8208 5.87081 23.15 6.67498 23.15 7.62498V10.95C23.15 11.5 22.9541 11.9708 22.5625 12.3625C22.1708 12.7541 21.7 12.95 21.15 12.95V19.75C21.15 20.7 20.8208 21.5041 20.1625 22.1625C19.5041 22.8208 18.7 23.15 17.75 23.15H6.24998C5.29998 23.15 4.49581 22.8208 3.83748 22.1625C3.17914 21.5041 2.84998 20.7 2.84998 19.75ZM14.0755 2.42498C13.8205 2.42498 13.5983 2.51606 13.409 2.69823C13.2196 2.88039 13.125 3.09364 13.125 3.33798C13.125 3.59631 13.2196 3.81289 13.409 3.98773C13.5983 4.16256 13.8205 4.24998 14.0755 4.24998C14.3445 4.24998 14.57 4.16256 14.752 3.98773C14.934 3.81289 15.025 3.59631 15.025 3.33798C15.025 3.09364 14.934 2.88039 14.752 2.69823C14.57 2.51606 14.3445 2.42498 14.0755 2.42498ZM9.04998 3.33473C9.04998 3.59256 9.14148 3.80956 9.32448 3.98573C9.50748 4.16189 9.72831 4.24998 9.98698 4.24998C10.2456 4.24998 10.4666 4.16189 10.65 3.98573C10.8333 3.80956 10.925 3.59256 10.925 3.33473C10.925 3.07706 10.8333 2.86098 10.65 2.68648C10.4666 2.51214 10.2456 2.42498 9.98698 2.42498C9.72831 2.42498 9.50748 2.51214 9.32448 2.68648C9.14148 2.86098 9.04998 3.07706 9.04998 3.33473ZM4.24998 7.62498V9.54998H10.55V7.62498H4.24998ZM10.55 19.775V12.95H6.24998V19.775H10.55ZM13.45 19.775H17.75V12.95H13.45V19.775ZM19.775 9.54998V7.62498H13.45V9.54998H19.775Z" fill="#625B71"/>
</g>
<defs>
<clipPath id="clip0_67_3428">
<rect width="24" height="24" fill="white"/>
</clipPath>
</defs>
</svg>
